<svg id="圖層_1" data-name="圖層 1" xmlns="http://www.w3.org/2000/svg" viewBox="0 0 156.31 137.16"><defs><style>.cls-1{fill:#c81d1d;}.cls-2{font-size:16.04px;fill:#fff;font-family:GillSans-SemiBold, Gill Sans;font-weight:600;}.cls-3{letter-spacing:-0.01em;}.cls-4{letter-spacing:-0.02em;}.cls-5{fill:#003c81;}</style></defs><polygon class="cls-1" points="109.14 137.16 18.85 137.16 23.75 120.09 114.04 120.09 109.14 137.16"/><text class="cls-2" transform="matrix(1, 0, -0.28, 0.96, 25.15, 133.94)">P<tspan class="cls-3" x="9.37" y="0">T</tspan><tspan x="19.9" y="0">S NE</tspan><tspan class="cls-4" x="54.92" y="0">W</tspan><tspan x="72.05" y="0">S</tspan></text><path class="cls-5" d="M40.93,9s-2.26-.21-2.26-4.24S41.33.48,41.33.48H77.71L81,17.66c.27,1.14.67,1.73,1.28,1.73H84.4s1.73,0,1.59,4.39c0,3.76-2.66,4.08-2.66,4.08H76.09c-2.48-.16-4-1.73-4.66-4.72L68.76,9Zm5.14,3.22-7.83,11a9.32,9.32,0,0,1-7.4,4.72H26.39s-2.66,0-2.66-4.24,3-4.23,3-4.23h1.92a5.18,5.18,0,0,0,3.86-1.73l4.23-5.49ZM19.17,59.84l2.08-7.45L51.34,19.1s1.71-1.76,6.53-1.28c5.7.56,4.74,4.5,4.74,4.5L37,50.5H61.73c1.79,0,1.84,0,1.39-2.11L60.85,37s0-3.41,5.89-3.79a4.77,4.77,0,0,1,5,3.79L74.09,51.4c0,5.65-2.29,8.47-6.9,8.47H19.25Z"/><path class="cls-5" d="M141.2,42.48A9.42,9.42,0,0,0,145.65,37L156.31.13H126.18l-7,24.4a8.56,8.56,0,0,1,5.55,10.74c-.07.21-.14.41-.22.6a17.06,17.06,0,0,1-8.12,9.81l-2.51,5.11A3.22,3.22,0,0,1,111,53s-2.53-.67-3.28,4.31c-.61,4.24,2.93,3.7,2.93,3.7h2.67A8,8,0,0,0,121,56.17l6.74-12.86h2.51L127,54.57q-1.73,6.07,4.26,6.31h9.08s2.16.24,3.44-4.18-1-3.75-1-3.75h-3c-1,0-1.36-.51-1.07-1.52ZM134.79,7h9.32l-1.63,4.85h-9.32Zm1.14,26.63A1.88,1.88,0,0,1,134,35.1h-7.83l1.49-4.84H137Zm-6.44-9.93L131,18.72h9.33l-1.52,4.93Z"/><path class="cls-5" d="M100.83,35.82A17.36,17.36,0,0,1,112,24.66,74.18,74.18,0,0,0,120.38,14a9.56,9.56,0,0,0,.74-4.42c-.4-1.15-1.49-1.71-3.27-1.71h-4.56l1.28-4.44A2.66,2.66,0,0,0,114,.77,6.6,6.6,0,0,0,111,0a8.19,8.19,0,0,0-3.78,1,5.22,5.22,0,0,0-2,2.45l-1.28,4.44h-4a4.21,4.21,0,0,0-3,1,7.81,7.81,0,0,0-1.65,2.93,4.18,4.18,0,0,0,0,2.66,2.88,2.88,0,0,0,2.45,1.2h12.6A78.87,78.87,0,0,1,92,31.88a4.44,4.44,0,0,0-3.48,5.24,3.94,3.94,0,0,0,.18.65A3.38,3.38,0,0,0,90.44,40c.55.49,1.54.49,3,0,1.36-1,2.66-1.79,3.65-2.45L91.13,57.74A1.76,1.76,0,0,0,91.85,60a4,4,0,0,0,2.67.75A7.69,7.69,0,0,0,98,60a3.46,3.46,0,0,0,2.43-2.21L103.76,46A9,9,0,0,1,100.83,35.82Z"/><path class="cls-1" d="M110.23,44.29a12.22,12.22,0,0,0,10.89-8.71,6.2,6.2,0,0,0-3.49-8,6.27,6.27,0,0,0-2.71-.42A12.37,12.37,0,0,0,104,35.82a6.21,6.21,0,0,0,3.5,8A6.13,6.13,0,0,0,110.23,44.29Z"/><path class="cls-5" d="M13.19,87.42H6.74c-1.64,0-2.23-.79-1.78-2.37a3,3,0,0,1,3.15-2.41h2.12a17.18,17.18,0,0,0,.21-2.79,2.9,2.9,0,0,1,.63-2,3.18,3.18,0,0,1,2-1.09l.42-.09H10.33c-1.64,0-2.24-.79-1.78-2.37a3,3,0,0,1,3.12-2.32h6l.48-1.65a3.48,3.48,0,0,1,3.69-2.75q2.85,0,2.07,2.75l-.48,1.65h5.86c1.61,0,2.19.78,1.75,2.32a3,3,0,0,1-3.09,2.37H25.2l1.43.33c.84.16,1,.66.35,1.51s-1.63,2.34-3,4.17h2.56c1.64,0,2.23.8,1.77,2.41a3,3,0,0,1-3.14,2.37H19l-1.07,3.74h5.71c1.68,0,2.28.8,1.82,2.41A3,3,0,0,1,22.21,96H16.5l-.11.38c.75.6,2.14,1.91,4.19,3.92a1.72,1.72,0,0,1,.6,1.59,3.84,3.84,0,0,1-1.4,1.73,3.87,3.87,0,0,1-2.2,1.2c-.57,0-1.1-.35-1.57-1.11-.12-.16-.32-.43-.6-.83s-.49-.68-.64-.87l-2.17,7.57A3.46,3.46,0,0,1,9,112.32c-1.94,0-2.64-.92-2.12-2.75l2-7a58.07,58.07,0,0,1-5.79,5.06,4,4,0,0,1-2.19,1,2,2,0,0,1-1.52-1.06,2.34,2.34,0,0,1-.42-2.13,4.72,4.72,0,0,1,2-1.94A51.51,51.51,0,0,0,9.55,96H4.48c-1.67,0-2.28-.81-1.82-2.42a3,3,0,0,1,3.21-2.41h6.25Zm-.6-4.78h9.8l-1.66-.38q-1.38-.33-.54-1.56a27.39,27.39,0,0,0,2.45-4.07H15.16a12.27,12.27,0,0,1,.27,3.17C15.33,81.28,14.39,82.23,12.59,82.64Zm23.35.47H48.75c1.84,0,2.5.89,2,2.65a3.32,3.32,0,0,1-3.51,2.65h-2l-6,21a3.5,3.5,0,0,1-3.7,2.75q-2.85,0-2.07-2.75l6-21H34.43L29.06,104c-5.87,7-9.65,7.72-10.51,6.24l-.07-.09a1.71,1.71,0,0,1-.6-1.76c.15-.69,6-6.58,6.79-7.31l4.38-13.37,3.87-13.49a3.48,3.48,0,0,1,1.61-2.2,3.07,3.07,0,0,1,2.56-.17,80.39,80.39,0,0,0,11.7-3.36,2.84,2.84,0,0,1,3.58.76c1.44,1.71.84,3-1.82,3.93A112.51,112.51,0,0,1,37.9,76.3Z"/><path class="cls-5" d="M60.06,69H75.94a2.21,2.21,0,0,1,2.36,3.12l-3,10.41a4.3,4.3,0,0,1-1.55,2.3,4.18,4.18,0,0,1-2.61.88H61l-6.87,24a3.49,3.49,0,0,1-3.69,2.74q-2.91,0-2.12-2.74L59.09,72.13M65.36,87.7H85.6c1.38,0,1.88.67,1.5,2a2.5,2.5,0,0,1-2.64,2h-1l-4.82,16.8A3.21,3.21,0,0,1,75.26,111c-1.77,0-2.41-.85-1.92-2.56l.08-.28q-9.15.66-14.59,1.09c-.73,0-1.2-.11-1.41-.43a2.32,2.32,0,0,1-.08-1.61,2.75,2.75,0,0,1,2.78-2.32l1.25,0,3.79-13.21h-.94c-1.38,0-1.88-.66-1.5-2A2.51,2.51,0,0,1,65.36,87.7Zm5.36-8.56H62.89l-.72,2.51h6.6a1.49,1.49,0,0,0,1.57-1.19ZM64,75.45h7.83l.39-1.38c.19-.66-.07-1-.79-1H64.63Zm11.23,26.6H67.35l-.73,2.55,8-.47Zm-6.92-3.18h7.83l.6-2.08H68.86Zm1.51-5.25H77.6l.56-1.94H70.33ZM85.79,69h13a2.49,2.49,0,0,1,2.12.85,2.51,2.51,0,0,1,.23,2.27l-9.63,33.61a12.47,12.47,0,0,1-1.5,3.48,5.4,5.4,0,0,1-2.32,1.91,13.28,13.28,0,0,1-3.3,1,6.86,6.86,0,0,1-3.37-.19,2,2,0,0,1-1.56-2,2.9,2.9,0,0,1,1.14-2.6,5.47,5.47,0,0,1,3.27-.76h.6a1.16,1.16,0,0,0,1.2-1l5.69-19.83H81a2.42,2.42,0,0,1-2.11-.88,2.52,2.52,0,0,1-.23-2.29l3-10.51a4.26,4.26,0,0,1,1.54-2.27A4.19,4.19,0,0,1,85.79,69Zm7.53,10.13H85.25l-.41,1.42c-.23.79.07,1.18.89,1.18h6.85Zm-7-3.69h8.07l.4-1.38q.28-1-.75-1H87l-.34,1.13Z"/><path class="cls-5" d="M104,98.4a54.17,54.17,0,0,1-4.15,8.09A3.56,3.56,0,0,1,98.25,108a2.27,2.27,0,0,1-1.84-.28c-.69-.35-1.07-.75-1.13-1.21a2.91,2.91,0,0,1,.73-1.87,44.28,44.28,0,0,0,3.26-6.58q1-2.55,3.39-2.18C104.1,96.14,104.53,97,104,98.4ZM128,69.24h20.29a2.53,2.53,0,0,1,2.14.86,2.39,2.39,0,0,1,.26,2.27l-9.84,34.31a9.46,9.46,0,0,1-1.4,3.1,5.48,5.48,0,0,1-2.24,1.73,13.74,13.74,0,0,1-4.78.85c-2,.07-3-.58-3-1.94a2.23,2.23,0,0,1,1-2.15,5.16,5.16,0,0,1,2.88-.59h1a1.24,1.24,0,0,0,1.22-1l9-31.28c.23-.79-.07-1.19-.89-1.19H129.85a1.5,1.5,0,0,0-1.57,1.19L118.36,110a3.16,3.16,0,0,1-3.33,2.51c-1.77,0-2.42-.84-1.94-2.51l1.7-5.92-2.15.62a1.51,1.51,0,0,1-1.24,0,.81.81,0,0,1-.37-.85,38.71,38.71,0,0,0,.1-5.16c-.1-1.39.66-2.31,2.26-2.75,1.39-.38,2.15,0,2.29,1.14.13,1.7.19,2.81.18,3.31l1.93-6.72-1.94.76a1.45,1.45,0,0,1-1.16.07.75.75,0,0,1-.41-.78c0-.32,0-.82,0-1.52l-2.57.19L106.69,110a3,3,0,0,1-3.21,2.41c-1.74,0-2.37-.8-1.91-2.41l5-17.28-4.44.38c-1.74.13-2.48-.63-2.2-2.27a3,3,0,0,1,3.18-2.7l.85,0c1.45-1.26,2.49-2.21,3.13-2.84a28.09,28.09,0,0,0-2.76-5.3,2.08,2.08,0,0,1,0-1.87,6.2,6.2,0,0,1,1.4-2,3.35,3.35,0,0,1,1.28-.78,1,1,0,0,1,1.1.21h0l0,0a71.92,71.92,0,0,0,4.43-6c1-1.58,2.28-2.09,3.83-1.52s1.66,1.72.24,3.46q-3.94,4.82-6.38,7.29a12.59,12.59,0,0,1,1.09,1.89c2.12-2.27,3.8-4.17,5-5.68s2.37-1.78,3.71-1.09c1.52.76,1.54,1.89.06,3.41q-5,5.07-10.78,10.46l4.4-.24a3.65,3.65,0,0,1-.08-.57,2.35,2.35,0,0,0-.1-.52c-.36-1.39.3-2.36,2-2.93,1.53-.54,2.42-.22,2.68.95a39.85,39.85,0,0,1,.84,4.63l4.8-16.75a4.13,4.13,0,0,1,1.54-2.27A4.19,4.19,0,0,1,128,69.24Zm.12,36c-2.3,0-3.7-.44-4.18-1.32s-.39-2.51.29-4.88l1.21-4.21h-.1a1,1,0,0,1-1-.47,1.54,1.54,0,0,1,0-1.19,4.18,4.18,0,0,1,1.15-1.94,2.66,2.66,0,0,1,1.89-.75h2.06l1.09-3.79h-1.92c-1.51,0-2-.84-1.55-2.51a2.19,2.19,0,0,1,2.21-1.84h.1a25.64,25.64,0,0,0,.05-5.35c-.05-.29.14-.49.57-.62a2.52,2.52,0,0,1,2.42.24,2.68,2.68,0,0,1,.93,2.18,3.29,3.29,0,0,1-2.43,3.5l-.12,0H137L136,82c-.47-.19-.55-.52-.25-1,.65-1,1.37-2.21,2.16-3.59s1.81-2,3.17-1.61,1.45,1.4.28,3q-.73,1-2.71,3.6h.15c1.51,0,2.06.72,1.64,2.17a2.75,2.75,0,0,1-2.89,2.18h-2l-1.08,3.79h2.16c1.51,0,2.06.72,1.64,2.17a2.73,2.73,0,0,1-2.88,2.18h-5l-1.23,4.31a4.36,4.36,0,0,0-.24,1.25c0,.21.2.31.53.31h3.49c1.63-.19,2.29.54,2,2.18a2.76,2.76,0,0,1-2.35,2.36Z"/><polygon class="cls-5" points="9.32 71.98 18.25 71.98 16.7 76.63 7.76 76.63 9.32 71.98"/><polygon class="cls-5" points="5.61 82.64 14.8 82.64 13.2 87.42 4.01 87.42 5.61 82.64"/><polygon class="cls-5" points="3.07 91.12 12.27 91.12 10.66 95.9 1.47 95.9 3.07 91.12"/></svg>