<svg xmlns="http://www.w3.org/2000/svg" viewBox="0 0 189.56 190.86"><defs><style>.cls-1{fill:#003c81;}.cls-2{fill:#c81d1d;}.cls-3{fill:#fff;}</style></defs><g id="圖層_2" data-name="圖層 2"><path class="cls-1" d="M38.91,62.75s-1.49-.14-1.49-2.79,1.76-2.8,1.76-2.8h24l2.2,11.35c.17.75.44,1.14.84,1.14h1.38s1.14,0,1.05,2.9c0,2.49-1.76,2.7-1.76,2.7H62.14c-1.64-.11-2.68-1.15-3.08-3.12L57.3,62.75Zm3.4,2.13-5.18,7.25a6.16,6.16,0,0,1-4.89,3.12H29.31s-1.76,0-1.76-2.8,2-2.8,2-2.8h1.26a3.38,3.38,0,0,0,2.55-1.14l2.8-3.63ZM24.54,96.38l1.37-4.93,19.88-22s1.13-1.16,4.31-.85c3.77.37,3.13,3,3.13,3L36.33,90.2H52.65c1.18,0,1.22,0,.92-1.39l-1.5-7.55s0-2.25,3.89-2.49a3.14,3.14,0,0,1,3.33,2.49l1.53,9.54q0,5.6-4.56,5.59H24.54Z"/><path class="cls-1" d="M105.15,84.91a6.25,6.25,0,0,0,2.94-3.65l7-24.33H95.23L90.59,73.05a5.64,5.64,0,0,1,3.66,7.09,2.74,2.74,0,0,1-.15.4A11.22,11.22,0,0,1,88.74,87l-1.66,3.37a2.12,2.12,0,0,1-1.86,1.43s-1.67-.44-2.16,2.85c-.41,2.8,1.93,2.45,1.93,2.45h1.76A5.27,5.27,0,0,0,91.83,94l4.46-8.5h1.65l-2.16,7.44C95,95.57,96,97,98.59,97.06h6s1.43.16,2.27-2.76-.67-2.48-.67-2.48h-2c-.67,0-.9-.33-.71-1Zm-4.24-23.48h6.16L106,64.64H99.84Zm.76,17.6a1.25,1.25,0,0,1-1.28,1H95.21l1-3.2h6.16Zm-4.26-6.56,1-3.26h6.15l-1,3.26Z"/><path class="cls-1" d="M78.48,80.51a11.5,11.5,0,0,1,7.39-7.38,49.46,49.46,0,0,0,5.53-7,6.35,6.35,0,0,0,.49-2.92c-.27-.76-1-1.13-2.17-1.13h-3l.84-2.94a1.75,1.75,0,0,0-.37-1.76,4.37,4.37,0,0,0-2-.51,5.6,5.6,0,0,0-2.5.65,3.5,3.5,0,0,0-1.35,1.62l-.85,2.94H77.85a2.81,2.81,0,0,0-2,.65,5.18,5.18,0,0,0-1.09,1.94,2.79,2.79,0,0,0,0,1.76,1.92,1.92,0,0,0,1.62.79h8.32A51.84,51.84,0,0,1,72.62,77.9a2.94,2.94,0,0,0-2.3,3.46,3,3,0,0,0,.12.43,2.22,2.22,0,0,0,1.18,1.46q.54.5,1.95,0c.9-.65,1.76-1.18,2.41-1.62L72.08,95a1.16,1.16,0,0,0,.47,1.46,2.63,2.63,0,0,0,1.76.49,5.21,5.21,0,0,0,2.27-.49A2.28,2.28,0,0,0,78.18,95l2.24-7.78A5.91,5.91,0,0,1,78.48,80.51Z"/><path class="cls-2" d="M84.69,86.1a8.08,8.08,0,0,0,7.2-5.75A4.1,4.1,0,0,0,89.58,75a4.21,4.21,0,0,0-1.79-.28,8.16,8.16,0,0,0-7.2,5.76,4.11,4.11,0,0,0,2.31,5.32A4.2,4.2,0,0,0,84.69,86.1Z"/><polygon class="cls-2" points="163.78 96.59 110.73 96.59 115.14 81.19 168.19 81.19 163.78 96.59"/><polygon class="cls-1" points="150.85 81.19 115.13 81.19 119.54 65.8 155.27 65.8 150.85 81.19"/><path class="cls-3" d="M128.06,69.33a2.52,2.52,0,0,1,2,.77,2,2,0,0,1,.29,2,3.5,3.5,0,0,1-1.44,2,4.3,4.3,0,0,1-2.53.76h-1.84l-1.14,4h-1.9l2.72-9.48Zm-1.64,4.07a2.38,2.38,0,0,0,1.29-.33,1.77,1.77,0,0,0,.71-1c.25-.87-.21-1.31-1.38-1.31h-1.3L125,73.4Z"/><path class="cls-3" d="M140.88,69.33l-.41,1.43H137l-2.3,8h-1.91l2.31-8h-3.51l.42-1.43Z"/><path class="cls-3" d="M145.08,69.21a4.88,4.88,0,0,1,2.58.69l-.47,1.63a4.35,4.35,0,0,0-2.46-.89,2.46,2.46,0,0,0-1.21.27,1.2,1.2,0,0,0-.61.71.91.91,0,0,0,.47,1,12.21,12.21,0,0,0,1.42.76,3.15,3.15,0,0,1,1.4,1.23,2.14,2.14,0,0,1,.07,1.61,3.44,3.44,0,0,1-1.48,2,4.47,4.47,0,0,1-2.58.75,5.34,5.34,0,0,1-1.57-.19,5.71,5.71,0,0,1-1.34-.69l.52-1.81a3.64,3.64,0,0,0,2.62,1.26,2.33,2.33,0,0,0,1.21-.29,1.3,1.3,0,0,0,.66-.77.91.91,0,0,0-.44-1.08l-1.38-.78a3.13,3.13,0,0,1-1.4-1.18,2,2,0,0,1-.13-1.58,3.25,3.25,0,0,1,1.47-1.9A4.84,4.84,0,0,1,145.08,69.21Z"/><path class="cls-3" d="M121.53,84.72l4,6.62,1.89-6.62h1.87l-2.72,9.49H124.9l-4-6.73L119,94.21h-1.86l2.72-9.49Z"/><path class="cls-3" d="M137.8,84.72l-.41,1.44h-4.47l-.71,2.49h4.28l-.41,1.43H131.8L131,92.77h4.57l-.42,1.44h-6.47l2.72-9.49Z"/><path class="cls-3" d="M140.62,84.72l.78,5.85,4.27-5.85h1.61l.91,5.87,4.14-5.87h1.95l-6.82,9.61h-.64l-1.09-7-5.14,7H140l-1.32-9.61Z"/><path class="cls-3" d="M157.74,84.6a4.88,4.88,0,0,1,2.58.69l-.47,1.63a4.35,4.35,0,0,0-2.46-.89,2.49,2.49,0,0,0-1.21.27,1.22,1.22,0,0,0-.61.72.91.91,0,0,0,.47,1c.12.09.59.34,1.42.76a3.14,3.14,0,0,1,1.4,1.22,2.17,2.17,0,0,1,.07,1.62,3.47,3.47,0,0,1-1.48,2,4.54,4.54,0,0,1-2.58.75,5.31,5.31,0,0,1-1.57-.2,5,5,0,0,1-1.34-.69l.52-1.81a3.61,3.61,0,0,0,2.62,1.27,2.34,2.34,0,0,0,1.21-.3,1.3,1.3,0,0,0,.66-.77.9.9,0,0,0-.44-1.07q-.54-.33-1.38-.78a3.14,3.14,0,0,1-1.4-1.19,2,2,0,0,1-.13-1.58,3.28,3.28,0,0,1,1.47-1.9A4.93,4.93,0,0,1,157.74,84.6Z"/><path class="cls-1" d="M72.51,118.4l-5.12,17.78a2.9,2.9,0,0,1-3.06,2.28c-1.58,0-2.15-.76-1.72-2.28l5.13-17.78"/><path class="cls-1" d="M36.22,137.9c1.65-.74,4-5.06,4.21-5.62s1.25-2.5.43-3.59a2.17,2.17,0,0,0-2.92-.64c-1.53.78-1,3.71-4.14,6.39a2,2,0,0,0-.49,2.78A2.19,2.19,0,0,0,36.22,137.9Z"/><path class="cls-1" d="M54.72,114h2.12c1.36,0,1.85.67,1.47,2a2.47,2.47,0,0,1-2.6,2H50.56l-.89,3.1h4.74c1.39,0,1.89.66,1.51,2a2.53,2.53,0,0,1-2.66,2H48.52l-3.23,11.27a2.86,2.86,0,0,1-3,2.27c-1.61,0-2.19-.76-1.75-2.27l1.66-5.81,1.57-5.46H38.56c-1.39,0-1.89-.67-1.51-2a2.51,2.51,0,0,1,2.66-2h5.18l.89-3.1H40.43c-1.36,0-1.85-.66-1.47-2a2.49,2.49,0,0,1,2.61-2h1.76m-7.77,21.53M46,109H43.41c-1.36,0-1.86-.66-1.48-2a2.44,2.44,0,0,1,2.59-1.92h4.94l.4-1.37a2.88,2.88,0,0,1,3.06-2.28c1.58,0,2.15.76,1.72,2.28l-.4,1.37H59.1c1.33,0,1.82.64,1.45,1.92A2.45,2.45,0,0,1,58,109H55.74m3.19,9.22,3.21-11.19a2.87,2.87,0,0,1,1.34-1.82,2.55,2.55,0,0,1,2.12-.14,66.26,66.26,0,0,0,9.7-2.79,2.36,2.36,0,0,1,3,.63c1.2,1.42.7,2.5-1.51,3.26a93,93,0,0,1-10.49,2.55L64.79,114m-.83-.58H75.88c1.53,0,2.08.73,1.66,2.19a2.76,2.76,0,0,1-2.92,2.2H63.37"/><polygon class="cls-1" points="48.43 114.06 48.76 108.95 44.26 108.95 43.94 114.06 48.43 114.06"/><polygon class="cls-1" points="55.08 114.05 57.6 108.94 53.16 108.94 50.64 114.05 55.08 114.05"/><path class="cls-1" d="M66.47,108.1l-4.82,16.35c-.42,1.46-5,1.46-4.61,0l4.81-16.35"/><path class="cls-1" d="M55,134.86A20,20,0,0,0,52.76,128c-.64-1-1.49-2-2.85-1.59-1.6.55-1.33,2.06-.67,3.35A22,22,0,0,1,51.1,136a2,2,0,0,0,2.21,1.75C55.47,137.44,55,134.86,55,134.86Z"/><path class="cls-1" d="M61.62,124.54c-1.89,4-4.07,9.44-6.72,12-1.48,1.3-2.58,1.34-3.28.12l-.06-.08a1.83,1.83,0,0,1-.42-1.72c.13-.57.44-.88,1.09-1.47,2.09-2.08,3.63-6.52,4.83-9"/><rect class="cls-3" x="65.34" y="117.81" width="8.47" height="1.5"/><path class="cls-1" d="M134.77,119.76l4-13.62.75-2.54h22.25l-.75,2.54L152.84,134a7.8,7.8,0,0,1-1.16,2.52c-.46.6-1.43.33-2.21.66-1,.41-2.13-2.38-2.13-2.38a1,1,0,0,0,1-.8l7.44-25.44c.19-.64-.06-1-.74-1H143.7a1.23,1.23,0,0,0-1.3,1l-8.23,28.13a2.6,2.6,0,0,1-2.76,2c-1.47,0-2-.68-1.61-2l1.41-4.81"/><path class="cls-1" d="M147.59,120.17h1.8c1.25,0,1.7.59,1.36,1.77a2.28,2.28,0,0,1-2.4,1.77h-8.29a.8.8,0,0,1-.78-.38,1.2,1.2,0,0,1-.05-1,3.46,3.46,0,0,1,1-1.58,2.26,2.26,0,0,1,1.57-.62h1.72"/><path class="cls-1" d="M144.41,117.06h-1.6c-1.25,0-1.67-.68-1.28-2a1.81,1.81,0,0,1,1.83-1.5h7.88c1.25,0,1.71.59,1.36,1.77a2.26,2.26,0,0,1-2.39,1.77h-1.68"/><path class="cls-1" d="M144.37,123.12l-1,3.51a3.33,3.33,0,0,0-.2,1c0,.16.17.25.44.25l-1.08,3.69c-1.91,0-3.06-.36-3.46-1.08s-.32-2,.24-4l1-3.43"/><path class="cls-1" d="M134.8,133.32a19.55,19.55,0,0,0-2.22-6.72c-.65-.94-1.49-2-2.85-1.55-1.6.53-1.34,2-.68,3.28a21.54,21.54,0,0,1,1.87,6.06,2,2,0,0,0,2.21,1.71C135.29,135.85,134.8,133.32,134.8,133.32Z"/><path class="cls-1" d="M117,135.14c1.65-.73,4-5,4.21-5.51s1.25-2.45.42-3.52a2.17,2.17,0,0,0-2.91-.62c-1.54.76-1,3.63-4.14,6.26a2,2,0,0,0-.5,2.72A2.23,2.23,0,0,0,117,135.14Z"/><path class="cls-1" d="M128.72,119.2H125.3l10.69-10-4-1.41-2,1.82h-2.27l3.46-3.12-3.9-1.28-4.56,4.19a2,2,0,0,0-.75,1l-1,3.33h4.66l-5,4.66a5.26,5.26,0,0,0-1.88,2.16l-.81,2.76h8v-.41h1.71v.41H129a4.36,4.36,0,0,0,2.68-1,3.47,3.47,0,0,0,1.31-1.71"/><path class="cls-1" d="M128.69,122.38l-4.19,14.35a2.52,2.52,0,0,1-2.66,2c-1.44,0-2-.65-1.59-2l4.11-14"/><path class="cls-1" d="M148.56,133.31a1.55,1.55,0,0,1-1.37,1s-1.34.1-1.59,2.06,1.42,1.77,1.42,1.77h1.3a3.89,3.89,0,0,0,3.74-2.29"/><path class="cls-1" d="M144.88,134.34s-1.23-.32-1.6,2.06c-.29,2,1.43,1.77,1.43,1.77h3.16"/><rect class="cls-1" x="144.74" y="134.34" width="2.69" height="2.14"/><path class="cls-1" d="M129.31,110.3l3.14-3a3.11,3.11,0,0,1,2.48-.48c2.17.21,1.8,1.68,1.8,1.68l-4.22,3.93"/><path class="cls-1" d="M126.18,106.25l3-2.87a3,3,0,0,1,2.37-.46c2.07.2,1.72,1.61,1.72,1.61l-4,3.76"/><path class="cls-1" d="M126.13,119.19h3.36c.79,0,.81,0,.61-.92l-.39-1.55s-.57-1.51,1.66-1.65a2.11,2.11,0,0,1,2.24,1.65l.41,2.86q0,3.69-3.06,3.69h-5.88"/><polygon class="cls-1" points="147.41 113.83 147.69 109.66 143.94 109.66 143.66 113.83 147.41 113.83"/><polygon class="cls-1" points="151.45 113.83 153.56 109.66 149.85 109.66 147.75 113.83 151.45 113.83"/><path class="cls-1" d="M142.32,131.59h4.81s1,.11,1.63-1.94-.48-1.75-.48-1.75h-4.69"/><polyline class="cls-1" points="143.3 120.99 144.2 117.92 148.33 117.92 147.43 120.99"/><path class="cls-1" d="M99.06,103.4a2.07,2.07,0,0,0-1.76-.7H84.07s-.52,1.8-.74,2.59L74.4,136.41c-.43,1.52.15,2.28,1.76,2.28a2.89,2.89,0,0,0,3.06-2.28l5.69-19.86h8.42a3.5,3.5,0,0,0,2.17-.72,3.68,3.68,0,0,0,1.28-1.91l2.47-8.63A2.07,2.07,0,0,0,99.06,103.4Zm-6.4,8.8a1.24,1.24,0,0,1-1.3,1H85.88l.6-2.08H93Zm1.52-5.3L93.85,108H87.36l.29-1a1.19,1.19,0,0,1,1.25-1h4.61C94.11,106.07,94.33,106.35,94.18,106.9Z"/><path class="cls-1" d="M105.81,118.2H89a2.08,2.08,0,0,0-2.19,1.65c-.31,1.1.1,1.65,1.25,1.65h.77l-3.14,10.95-1,0a2.28,2.28,0,0,0-2.31,1.92,1.94,1.94,0,0,0,.07,1.34c.17.26.56.38,1.16.35q4.52-.36,12.1-.9l-.06.23c-.41,1.42.12,2.12,1.59,2.12a2.67,2.67,0,0,0,2.82-2.12l4-13.93h.82a2.08,2.08,0,0,0,2.19-1.65C107.37,118.75,107,118.2,105.81,118.2Zm-9.13,13.62-6.6.39.61-2.12h6.49Zm1.25-4.36H91.44l.49-1.72h6.5Zm1.25-4.35H92.69l.46-1.61h6.49Z"/><path class="cls-1" d="M103.5,102.7s-.54,1.8-.76,2.59l-2.5,8.71a2.12,2.12,0,0,0,.19,1.91,2,2,0,0,0,1.75.72h8.66l-4.78,16.65c-.15.52.92,4.72,1.74,4.35a4.56,4.56,0,0,0,1.92-1.59,10.07,10.07,0,0,0,1.24-2.88l8-27.87c.22-.79.79-2.59.79-2.59Zm8.31,10.56h-5.68c-.68,0-.93-.33-.74-1l.34-1.17h6.69Zm1.82-6.36L113.3,108h-6.69l.29-1a1.21,1.21,0,0,1,1.29-1H113C113.58,106.07,113.79,106.35,113.63,106.9Z"/><path class="cls-1" d="M106.18,133.22a1.52,1.52,0,0,1-1.34,1s-1.21-.31-1.57,2.06c-.29,2,1.4,1.77,1.4,1.77h1.27a3.84,3.84,0,0,0,3.68-2.29"/><path class="cls-1" d="M102.57,134.25s-1.21-.31-1.57,2.06c-.29,2,1.4,1.77,1.4,1.77h3.1"/><rect class="cls-1" x="102.44" y="134.25" width="2.64" height="2.14"/><polyline class="cls-3" points="95.7 131.54 98.49 121.57 99.6 121.68 96.69 131.8"/></g></svg>