<svg xmlns="http://www.w3.org/2000/svg" viewBox="0 0 143.66 81.93"><defs><style>.cls-1{fill:#fff;}.cls-2{fill:#afafaf;}.cls-3{fill:#003c81;}.cls-4{fill:#c81d1d;}</style></defs><g id="圖層_1" data-name="圖層 1"><rect class="cls-1" x="-35.01" y="-77.25" width="252.73" height="243.86"/></g><g id="圖層_2" data-name="圖層 2"><path class="cls-1" d="M-132.26-125.86V272H265.61V-125.86ZM70.24,132.8A94.78,94.78,0,1,1,165,38,94.78,94.78,0,0,1,70.24,132.8Z"/><path class="cls-2" d="M70.24-56.5A94.53,94.53,0,1,1-24.29,38,94.63,94.63,0,0,1,70.24-56.5m0-.25A94.78,94.78,0,1,0,165,38,94.78,94.78,0,0,0,70.24-56.75Z"/><path class="cls-3" d="M14.37,5.91s-1.49-.14-1.49-2.8S14.64.32,14.64.32h24l2.2,11.34c.18.76.44,1.15.85,1.15h1.37s1.14,0,1,2.9c0,2.48-1.76,2.69-1.76,2.69H37.6c-1.64-.1-2.68-1.14-3.08-3.11L32.76,5.91ZM17.77,8,12.6,15.29A6.17,6.17,0,0,1,7.71,18.4H4.77S3,18.4,3,15.61s2-2.8,2-2.8H6.25A3.42,3.42,0,0,0,8.8,11.66L11.59,8ZM0,39.53l1.37-4.92,19.88-22s1.13-1.16,4.31-.84c3.77.37,3.14,3,3.14,3L11.79,33.36H28.12c1.17,0,1.21,0,.91-1.39l-1.5-7.55s0-2.25,3.89-2.5a3.15,3.15,0,0,1,3.33,2.5L36.28,34c0,3.73-1.51,5.59-4.56,5.59H.05Z"/><path class="cls-3" d="M80.62,28.06a6.18,6.18,0,0,0,2.93-3.64l7-24.33H70.69L66.05,16.2a5.65,5.65,0,0,1,3.66,7.1c0,.14-.09.27-.14.4a11.25,11.25,0,0,1-5.37,6.47l-1.65,3.38A2.14,2.14,0,0,1,60.68,35s-1.67-.44-2.16,2.85c-.41,2.79,1.93,2.44,1.93,2.44h1.76a5.3,5.3,0,0,0,5.09-3.16l4.45-8.5H73.4l-2.16,7.44c-.76,2.67.17,4.06,2.81,4.17h6s1.43.16,2.27-2.76S81.65,35,81.65,35h-2c-.67,0-.9-.34-.71-1ZM76.38,4.59h6.15l-1.07,3.2H75.3Zm.75,17.6a1.24,1.24,0,0,1-1.28,1H70.68l1-3.2h6.16Zm-4.26-6.57,1-3.25H80l-1,3.25Z"/><path class="cls-3" d="M53.94,23.66a11.48,11.48,0,0,1,7.39-7.37,48.84,48.84,0,0,0,5.53-7,6.35,6.35,0,0,0,.49-2.92c-.26-.75-1-1.12-2.16-1.12h-3L63,2.27A1.75,1.75,0,0,0,62.65.51a4.34,4.34,0,0,0-2-.51,5.6,5.6,0,0,0-2.5.65,3.51,3.51,0,0,0-1.35,1.62L56,5.21H53.31a2.77,2.77,0,0,0-2,.65,5.08,5.08,0,0,0-1.09,1.93,2.66,2.66,0,0,0,0,1.76,1.91,1.91,0,0,0,1.61.8h8.33A52.09,52.09,0,0,1,48.08,21.06a2.94,2.94,0,0,0-2.3,3.46,3,3,0,0,0,.12.43,2.25,2.25,0,0,0,1.18,1.46q.56.49,2,0c.9-.65,1.76-1.18,2.42-1.62L47.54,38.14A1.16,1.16,0,0,0,48,39.6a2.65,2.65,0,0,0,1.76.5A5.08,5.08,0,0,0,52,39.6a2.24,2.24,0,0,0,1.6-1.46l2.24-7.77A5.92,5.92,0,0,1,53.94,23.66Z"/><path class="cls-4" d="M60.15,29.26a8.08,8.08,0,0,0,7.2-5.75,4.11,4.11,0,0,0-4.1-5.6,8.15,8.15,0,0,0-7.2,5.75A4.11,4.11,0,0,0,58.36,29,4.06,4.06,0,0,0,60.15,29.26Z"/><polygon class="cls-4" points="139.24 39.74 86.19 39.74 90.61 24.35 143.66 24.35 139.24 39.74"/><polygon class="cls-3" points="126.32 24.35 90.59 24.35 95 8.96 130.73 8.96 126.32 24.35"/><path class="cls-1" d="M103.52,12.49a2.49,2.49,0,0,1,2,.77,2,2,0,0,1,.3,2,3.57,3.57,0,0,1-1.45,2,4.3,4.3,0,0,1-2.53.76H100L98.9,22H97l2.72-9.48Zm-1.64,4.07a2.3,2.3,0,0,0,1.29-.34,1.67,1.67,0,0,0,.71-1c.25-.88-.21-1.31-1.38-1.31h-1.3l-.75,2.64Z"/><path class="cls-1" d="M116.34,12.49l-.41,1.43h-3.5l-2.31,8h-1.91l2.31-8H107l.41-1.43Z"/><path class="cls-1" d="M120.54,12.36a4.8,4.8,0,0,1,2.58.7l-.47,1.63a4.27,4.27,0,0,0-2.46-.89,2.61,2.61,0,0,0-1.21.26,1.22,1.22,0,0,0-.61.72.91.91,0,0,0,.47,1,14.22,14.22,0,0,0,1.42.76,3.2,3.2,0,0,1,1.4,1.22,2.17,2.17,0,0,1,.07,1.62,3.43,3.43,0,0,1-1.48,2,4.54,4.54,0,0,1-2.58.75,5,5,0,0,1-1.57-.2,4.85,4.85,0,0,1-1.33-.69l.51-1.8a3.64,3.64,0,0,0,2.62,1.26,2.5,2.5,0,0,0,1.22-.29,1.3,1.3,0,0,0,.65-.78.89.89,0,0,0-.44-1.07q-.52-.33-1.38-.78a3.14,3.14,0,0,1-1.4-1.19,2,2,0,0,1-.13-1.57,3.28,3.28,0,0,1,1.48-1.91A4.87,4.87,0,0,1,120.54,12.36Z"/><path class="cls-1" d="M97,27.88l4,6.62,1.9-6.62h1.86L102,37.36h-1.64l-4-6.72-1.93,6.72H92.6l2.72-9.48Z"/><path class="cls-1" d="M113.27,27.88l-.41,1.43h-4.47l-.72,2.49H112l-.41,1.44h-4.28l-.77,2.69h4.57l-.41,1.43h-6.48l2.72-9.48Z"/><path class="cls-1" d="M116.09,27.88l.77,5.85,4.27-5.85h1.61l.91,5.87,4.14-5.87h2l-6.82,9.61h-.64l-1.09-7-5.14,7h-.62l-1.31-9.61Z"/><path class="cls-1" d="M133.2,27.76a4.88,4.88,0,0,1,2.58.69l-.47,1.63a4.35,4.35,0,0,0-2.46-.89,2.42,2.42,0,0,0-1.2.27,1.21,1.21,0,0,0-.62.71c-.1.36.06.69.48,1a14.45,14.45,0,0,0,1.41.76,3.08,3.08,0,0,1,1.4,1.22,2.14,2.14,0,0,1,.07,1.61,3.42,3.42,0,0,1-1.48,2,4.54,4.54,0,0,1-2.58.75,5.31,5.31,0,0,1-1.57-.2,5.48,5.48,0,0,1-1.33-.69l.51-1.81a3.64,3.64,0,0,0,2.62,1.26,2.4,2.4,0,0,0,1.22-.29,1.28,1.28,0,0,0,.65-.77.9.9,0,0,0-.44-1.08q-.53-.31-1.38-.78a3.13,3.13,0,0,1-1.4-1.18,2,2,0,0,1-.12-1.58,3.17,3.17,0,0,1,1.47-1.9A4.79,4.79,0,0,1,133.2,27.76Z"/><path class="cls-3" d="M48,61.56,42.85,79.34a2.89,2.89,0,0,1-3.06,2.27c-1.58,0-2.15-.76-1.72-2.27L43.2,61.56"/><path class="cls-3" d="M11.68,81.06c1.65-.74,4-5.06,4.22-5.62s1.24-2.5.42-3.59a2.16,2.16,0,0,0-2.91-.64c-1.54.78-1,3.7-4.15,6.39a2,2,0,0,0-.49,2.78A2.21,2.21,0,0,0,11.68,81.06Z"/><path class="cls-3" d="M30.18,57.16H32.3c1.37,0,1.85.67,1.47,2a2.46,2.46,0,0,1-2.6,2H26l-.89,3.1h4.74c1.39,0,1.89.67,1.51,2a2.52,2.52,0,0,1-2.66,2H24L20.76,79.49a2.88,2.88,0,0,1-3,2.28c-1.6,0-2.19-.76-1.75-2.28l1.66-5.81,1.57-5.45H14c-1.39,0-1.89-.67-1.51-2a2.53,2.53,0,0,1,2.66-2h5.19l.89-3.1H15.9c-1.36,0-1.86-.65-1.48-2a2.49,2.49,0,0,1,2.61-2h1.76M11,78.69,21.48,52.17H18.87c-1.36,0-1.85-.65-1.48-2A2.45,2.45,0,0,1,20,48.29h4.94l.39-1.38a2.88,2.88,0,0,1,3.06-2.27c1.58,0,2.15.76,1.72,2.27l-.4,1.38h4.86c1.34,0,1.82.64,1.45,1.92a2.44,2.44,0,0,1-2.56,2H31.2m3.2,9.23,3.2-11.19a2.87,2.87,0,0,1,1.34-1.82,2.54,2.54,0,0,1,2.13-.14,69.24,69.24,0,0,0,9.7-2.79,2.35,2.35,0,0,1,3,.63q1.8,2.11-1.51,3.26A93,93,0,0,1,41.73,51.9l-1.48,5.26m-.83-.59H51.34c1.53,0,2.08.74,1.66,2.2A2.76,2.76,0,0,1,50.08,61H38.83"/><polygon class="cls-3" points="23.89 57.22 24.22 52.11 19.73 52.11 19.4 57.22 23.89 57.22"/><polygon class="cls-3" points="30.54 57.21 33.07 52.1 28.63 52.1 26.1 57.21 30.54 57.21"/><path class="cls-3" d="M41.93,51.26,37.11,67.6c-.41,1.47-5,1.47-4.61,0l4.82-16.34"/><path class="cls-3" d="M30.45,78a19.91,19.91,0,0,0-2.23-6.85c-.64-1-1.49-2-2.84-1.58-1.6.54-1.34,2.06-.68,3.35a22.31,22.31,0,0,1,1.87,6.18,2,2,0,0,0,2.2,1.74C30.93,80.6,30.45,78,30.45,78Z"/><path class="cls-3" d="M37.08,67.69c-1.89,4-4.06,9.45-6.72,12q-2.22,2-3.28.12L27,79.78a1.86,1.86,0,0,1-.42-1.72c.13-.57.44-.88,1.1-1.48,2.08-2.08,3.63-6.51,4.82-9"/><rect class="cls-1" x="40.8" y="60.96" width="8.47" height="1.5"/><path class="cls-3" d="M110.23,62.92l4-13.63.75-2.54h22.25s-.52,1.77-.74,2.54l-8.16,27.9a7.8,7.8,0,0,1-1.17,2.52c-.46.61-1.43.33-2.21.67-1,.41-2.13-2.38-2.13-2.38a1,1,0,0,0,1-.81l7.44-25.43c.18-.64-.06-1-.74-1H119.16a1.23,1.23,0,0,0-1.3,1l-8.22,28.13a2.62,2.62,0,0,1-2.77,2c-1.47,0-2-.68-1.6-2l1.4-4.81"/><path class="cls-3" d="M123.05,63.33h1.8c1.25,0,1.71.59,1.36,1.77a2.26,2.26,0,0,1-2.4,1.77h-8.28a.82.82,0,0,1-.79-.38,1.27,1.27,0,0,1,0-1,3.36,3.36,0,0,1,1-1.57,2.22,2.22,0,0,1,1.56-.62h1.72"/><path class="cls-3" d="M119.87,60.21h-1.59c-1.26,0-1.68-.67-1.28-2a1.81,1.81,0,0,1,1.82-1.51h7.88c1.25,0,1.71.6,1.36,1.77a2.26,2.26,0,0,1-2.39,1.77H124"/><path class="cls-3" d="M119.84,66.28l-1,3.5a3.29,3.29,0,0,0-.19,1c0,.17.16.25.43.25L118,74.75c-1.9,0-3.06-.36-3.46-1.08s-.32-2,.24-4l1-3.43"/><path class="cls-3" d="M110.27,76.47A19.4,19.4,0,0,0,108,69.76c-.64-.94-1.49-2-2.85-1.56-1.6.54-1.33,2-.68,3.29a21.54,21.54,0,0,1,1.87,6.06,2,2,0,0,0,2.21,1.71C110.75,79,110.27,76.47,110.27,76.47Z"/><path class="cls-3" d="M92.41,78.3c1.65-.73,4-5,4.21-5.51s1.25-2.45.42-3.52a2.19,2.19,0,0,0-2.91-.63c-1.54.76-1,3.63-4.14,6.27a2,2,0,0,0-.49,2.72A2.23,2.23,0,0,0,92.41,78.3Z"/><path class="cls-3" d="M104.18,62.35h-3.42l10.69-10-4-1.4-2,1.82H103.2l3.46-3.13-3.9-1.28-4.55,4.2a1.88,1.88,0,0,0-.76,1l-1,3.33h4.66l-5,4.66a5.28,5.28,0,0,0-1.88,2.16l-.8,2.76h8V66h1.71v.41h1.26a4.37,4.37,0,0,0,2.69-1,3.69,3.69,0,0,0,1.31-1.71"/><path class="cls-3" d="M104.16,65.53,100,79.89a2.52,2.52,0,0,1-2.66,2c-1.44,0-2-.66-1.59-2l4.11-14"/><path class="cls-3" d="M124,76.47a1.57,1.57,0,0,1-1.38,1s-1.34.1-1.59,2.06,1.42,1.76,1.42,1.76h1.3A3.89,3.89,0,0,0,127.53,79"/><path class="cls-3" d="M120.34,77.5s-1.23-.32-1.59,2.06c-.3,2,1.42,1.76,1.42,1.76h3.16"/><rect class="cls-3" x="120.2" y="77.5" width="2.69" height="2.14"/><path class="cls-3" d="M104.77,53.46l3.14-3a3.14,3.14,0,0,1,2.48-.47c2.17.21,1.8,1.67,1.8,1.67L108,55.59"/><path class="cls-3" d="M101.64,49.41l3-2.87a3,3,0,0,1,2.37-.46c2.07.2,1.72,1.6,1.72,1.6l-4,3.76"/><path class="cls-3" d="M101.59,62.34H105c.79,0,.82,0,.62-.91l-.39-1.56s-.58-1.51,1.65-1.64a2.11,2.11,0,0,1,2.24,1.64l.41,2.87c0,2.46-1,3.69-3.06,3.69h-5.88"/><polygon class="cls-3" points="122.87 56.99 123.15 52.81 119.4 52.81 119.13 56.99 122.87 56.99"/><polygon class="cls-3" points="126.91 56.99 129.02 52.81 125.31 52.81 123.21 56.99 126.91 56.99"/><path class="cls-3" d="M117.78,74.75h4.81s1,.11,1.63-2-.48-1.74-.48-1.74h-4.69"/><polyline class="cls-3" points="118.77 64.15 119.67 61.07 123.79 61.07 122.89 64.15"/><path class="cls-3" d="M74.52,46.56a2.07,2.07,0,0,0-1.76-.71H59.53s-.51,1.81-.74,2.6L49.87,79.57c-.44,1.52.14,2.28,1.75,2.28a2.88,2.88,0,0,0,3.06-2.28l5.7-19.86h8.41A3.43,3.43,0,0,0,71,59a3.56,3.56,0,0,0,1.28-1.9l2.47-8.63A2.07,2.07,0,0,0,74.52,46.56Zm-6.4,8.79a1.23,1.23,0,0,1-1.3,1H61.35l.59-2.08h6.49Zm1.52-5.3-.33,1.14H62.82l.29-1a1.18,1.18,0,0,1,1.25-.94H69C69.58,49.23,69.8,49.51,69.64,50.05Z"/><path class="cls-3" d="M81.28,61.36H64.49A2.07,2.07,0,0,0,62.31,63c-.32,1.1.1,1.65,1.24,1.65h.77l-3.14,11-1,0a2.26,2.26,0,0,0-2.3,1.92,1.86,1.86,0,0,0,.06,1.33c.17.27.56.38,1.17.36q4.5-.36,12.1-.91l-.07.24c-.41,1.41.13,2.12,1.6,2.12a2.67,2.67,0,0,0,2.81-2.12l4-13.93h.82A2.08,2.08,0,0,0,82.52,63C82.83,61.91,82.42,61.36,81.28,61.36ZM72.14,75l-6.6.39.61-2.12h6.49Zm1.25-4.36H66.9l.5-1.72h6.49Zm1.25-4.35H68.15l.46-1.61H75.1Z"/><path class="cls-3" d="M79,45.85l-.76,2.6-2.5,8.71a2.13,2.13,0,0,0,.19,1.9,2,2,0,0,0,1.75.73H86.3L81.52,76.44c-.15.52.93,4.71,1.74,4.35a4.56,4.56,0,0,0,1.92-1.59,10,10,0,0,0,1.24-2.89l8-27.86c.23-.79.8-2.6.8-2.6Zm8.31,10.56H81.59c-.68,0-.93-.32-.74-1l.34-1.18h6.7Zm1.82-6.36-.32,1.14h-6.7l.29-1a1.21,1.21,0,0,1,1.29-.94h4.82C89,49.23,89.25,49.51,89.09,50.05Z"/><path class="cls-3" d="M81.65,76.38a1.56,1.56,0,0,1-1.35,1s-1.21-.32-1.57,2.06c-.29,2,1.4,1.77,1.4,1.77H81.4A3.83,3.83,0,0,0,85.08,79"/><path class="cls-3" d="M78,77.41s-1.21-.32-1.56,2.06c-.3,2,1.4,1.77,1.4,1.77H81"/><rect class="cls-3" x="77.9" y="77.41" width="2.64" height="2.14"/><polyline class="cls-1" points="71.17 74.7 73.95 64.73 75.07 64.84 72.16 74.96"/></g></svg>