<svg id="圖層_1" data-name="圖層 1" xmlns="http://www.w3.org/2000/svg" viewBox="0 0 150 150"><defs><style>.cls-1{fill:#003c81;}.cls-2{fill:#c81d1d;}.cls-3{fill:#fff;}</style></defs><path class="cls-1" d="M24.66,39.13s-1.39-.13-1.39-2.59,1.64-2.6,1.64-2.6h22.3l2,10.53c.16.71.4,1.06.78,1.06h1.27s1.06,0,1,2.7c0,2.3-1.63,2.5-1.63,2.5H46.22c-1.52-.1-2.48-1.06-2.86-2.89l-1.63-8.71Zm3.15,2L23,47.84a5.73,5.73,0,0,1-4.54,2.89H15.74s-1.63,0-1.63-2.6,1.83-2.6,1.83-2.6h1.18a3.11,3.11,0,0,0,2.36-1.06l2.6-3.36ZM11.32,70.34l1.27-4.57L31.05,45.36s1-1.08,4-.79c3.49.34,2.9,2.76,2.9,2.76L22.26,64.61H37.42c1.09,0,1.12,0,.84-1.29l-1.38-7s0-2.09,3.61-2.32a2.92,2.92,0,0,1,3.08,2.32L45,65.16c0,3.47-1.4,5.2-4.23,5.2H11.37Z"/><path class="cls-1" d="M86.15,59.69a5.81,5.81,0,0,0,2.73-3.38l6.53-22.58H76.94l-4.31,15A5.24,5.24,0,0,1,76,55.28a2.6,2.6,0,0,1-.13.36,10.38,10.38,0,0,1-5,6l-1.53,3.14a2,2,0,0,1-1.74,1.32s-1.55-.41-2,2.65C65.26,71.35,67.43,71,67.43,71h1.64a4.92,4.92,0,0,0,4.72-2.94l4.13-7.89h1.53l-2,6.91Q76.39,70.83,80.06,71h5.57s1.32.15,2.1-2.57-.62-2.3-.62-2.3H85.25c-.62,0-.83-.31-.65-.93ZM82.21,37.91h5.72l-1,3H81.22Zm.7,16.33a1.16,1.16,0,0,1-1.19.93h-4.8l.92-3h5.71Zm-4-6.09.93-3h5.72l-.93,3Z"/><path class="cls-1" d="M61.39,55.61a10.66,10.66,0,0,1,6.86-6.84,46.23,46.23,0,0,0,5.13-6.53,5.9,5.9,0,0,0,.45-2.72c-.24-.7-.91-1-2-1H69l.79-2.73a1.63,1.63,0,0,0-.35-1.63,4,4,0,0,0-1.83-.47,5,5,0,0,0-2.31.6,3.18,3.18,0,0,0-1.26,1.5l-.79,2.73H60.8a2.58,2.58,0,0,0-1.81.6,4.73,4.73,0,0,0-1,1.8,2.4,2.4,0,0,0,0,1.63,1.75,1.75,0,0,0,1.5.74H67.2A48.06,48.06,0,0,1,56,53.19a2.74,2.74,0,0,0-2.14,3.22,2.91,2.91,0,0,0,.12.39A2,2,0,0,0,55,58.16c.34.3.94.3,1.81,0,.84-.61,1.64-1.1,2.24-1.5L55.45,69.05a1.08,1.08,0,0,0,.44,1.36,2.43,2.43,0,0,0,1.63.45,4.66,4.66,0,0,0,2.11-.45,2.13,2.13,0,0,0,1.48-1.36l2.08-7.22A5.48,5.48,0,0,1,61.39,55.61Z"/><path class="cls-2" d="M67.15,60.8a7.48,7.48,0,0,0,6.68-5.34A3.81,3.81,0,0,0,70,50.27a7.56,7.56,0,0,0-6.68,5.34,3.79,3.79,0,0,0,3.8,5.19Z"/><path class="cls-1" d="M55.85,90.78l-4.76,16.51a2.68,2.68,0,0,1-2.84,2.11c-1.47,0-2-.7-1.59-2.11l4.76-16.51"/><path class="cls-1" d="M22.16,108.89c1.53-.69,3.69-4.7,3.91-5.22s1.16-2.32.39-3.33a2,2,0,0,0-2.7-.59c-1.43.72-.9,3.43-3.84,5.93a1.88,1.88,0,0,0-.46,2.57A2,2,0,0,0,22.16,108.89Z"/><path class="cls-1" d="M39.33,86.7h2c1.27,0,1.72.62,1.37,1.86a2.3,2.3,0,0,1-2.42,1.82H35.47l-.82,2.88H39c1.29,0,1.76.62,1.4,1.86A2.33,2.33,0,0,1,38,97h-4.4l-3,10.45a2.66,2.66,0,0,1-2.8,2.12c-1.49,0-2-.71-1.63-2.12L27.69,102,29.15,97H24.33c-1.29,0-1.75-.62-1.4-1.86a2.35,2.35,0,0,1,2.47-1.86h4.81L31,90.38h-5c-1.26,0-1.72-.61-1.37-1.82a2.32,2.32,0,0,1,2.43-1.86h1.63m-7.21,20,9.71-24.62H28.83c-1.26,0-1.72-.6-1.37-1.82a2.27,2.27,0,0,1,2.41-1.78h4.59l.36-1.28a2.68,2.68,0,0,1,2.84-2.11c1.47,0,2,.7,1.6,2.11l-.37,1.28H43.4c1.24,0,1.69.59,1.35,1.78a2.27,2.27,0,0,1-2.38,1.82H40.28m3,8.57,3-10.39a2.65,2.65,0,0,1,1.25-1.69,2.36,2.36,0,0,1,2-.13,63.74,63.74,0,0,0,9-2.59,2.17,2.17,0,0,1,2.75.59q1.68,2-1.4,3a85.46,85.46,0,0,1-9.73,2.37L48.68,86.7m-.77-.54H59q2.12,0,1.53,2a2.56,2.56,0,0,1-2.7,2H47.36"/><polygon class="cls-1" points="33.5 86.75 33.8 82.01 29.63 82.01 29.32 86.75 33.5 86.75"/><polygon class="cls-1" points="39.66 86.75 42.01 82.01 37.89 82.01 35.55 86.75 39.66 86.75"/><path class="cls-1" d="M50.24,81.22,45.77,96.4c-.39,1.36-4.67,1.36-4.28,0L46,81.22"/><path class="cls-1" d="M39.58,106.06a18.89,18.89,0,0,0-2.06-6.36c-.6-.89-1.39-1.9-2.65-1.47-1.48.5-1.24,1.91-.63,3.11A20.51,20.51,0,0,1,36,107.08,1.85,1.85,0,0,0,38,108.7C40,108.46,39.58,106.06,39.58,106.06Z"/><path class="cls-1" d="M45.74,96.48C44,100.2,42,105.25,39.5,107.66q-2.07,1.82-3,.11l-.06-.07a1.73,1.73,0,0,1-.39-1.6c.12-.53.41-.81,1-1.37,1.93-1.93,3.37-6,4.48-8.38"/><rect class="cls-3" x="49.19" y="90.23" width="7.86" height="1.39"/><path class="cls-1" d="M113.64,92.05l3.69-12.65L118,77h20.66L138,79.4l-7.57,25.9a7.3,7.3,0,0,1-1.09,2.34c-.43.56-1.33.3-2.05.61-.94.38-2-2.2-2-2.2a1,1,0,0,0,.94-.75l6.9-23.61c.18-.6-.05-.9-.68-.9H121.93a1.14,1.14,0,0,0-1.21.9l-7.64,26.11a2.41,2.41,0,0,1-2.56,1.89c-1.36,0-1.86-.63-1.49-1.89l1.3-4.47"/><path class="cls-1" d="M125.54,92.43h1.67c1.16,0,1.58.55,1.26,1.64a2.1,2.1,0,0,1-2.22,1.65h-7.7a.76.76,0,0,1-.73-.36,1.16,1.16,0,0,1,0-.89,3.13,3.13,0,0,1,.88-1.47,2.1,2.1,0,0,1,1.46-.57h1.59"/><path class="cls-1" d="M122.58,89.54h-1.47c-1.17,0-1.56-.63-1.19-1.89a1.67,1.67,0,0,1,1.69-1.4h7.32q1.74,0,1.26,1.65A2.1,2.1,0,0,1,128,89.54h-1.56"/><path class="cls-1" d="M122.55,95.17l-1,3.25a3,3,0,0,0-.18,1c0,.15.15.23.41.23l-1,3.43c-1.77,0-2.84-.33-3.21-1s-.3-1.89.22-3.68l.93-3.18"/><path class="cls-1" d="M113.67,104.63a17.85,17.85,0,0,0-2.07-6.23c-.59-.88-1.38-1.87-2.64-1.45-1.49.5-1.24,1.88-.63,3a19.89,19.89,0,0,1,1.73,5.63,1.84,1.84,0,0,0,2,1.58C114.12,107,113.67,104.63,113.67,104.63Z"/><path class="cls-1" d="M97.09,106.33c1.54-.68,3.69-4.61,3.92-5.12s1.15-2.27.39-3.27a2.05,2.05,0,0,0-2.71-.58c-1.42.71-.9,3.37-3.84,5.82a1.83,1.83,0,0,0-.46,2.52A2.07,2.07,0,0,0,97.09,106.33Z"/><path class="cls-1" d="M108,91.52h-3.17l9.92-9.27L111,81l-1.81,1.68h-2.11l3.21-2.89-3.62-1.19-4.23,3.89a1.82,1.82,0,0,0-.69.88l-.91,3.09h4.33l-4.6,4.33a5,5,0,0,0-1.74,2l-.75,2.56h7.44v-.37h1.58v.37h1.17a4.05,4.05,0,0,0,2.49-.91A3.39,3.39,0,0,0,112,92.8"/><path class="cls-1" d="M108,94.48l-3.9,13.32a2.33,2.33,0,0,1-2.46,1.82c-1.34,0-1.84-.61-1.48-1.82l3.81-13"/><path class="cls-1" d="M126.44,104.63a1.44,1.44,0,0,1-1.27,1s-1.25.09-1.48,1.91,1.32,1.64,1.32,1.64h1.2a3.62,3.62,0,0,0,3.48-2.12"/><path class="cls-1" d="M123,105.58s-1.14-.29-1.48,1.91c-.28,1.88,1.32,1.64,1.32,1.64h2.94"/><rect class="cls-1" x="122.89" y="105.58" width="2.5" height="1.98"/><path class="cls-1" d="M108.57,83.27l2.92-2.79s.6-.61,2.3-.44c2,.19,1.67,1.55,1.67,1.55l-3.92,3.65"/><path class="cls-1" d="M105.66,79.51l2.79-2.67a2.78,2.78,0,0,1,2.2-.42c1.92.18,1.6,1.49,1.6,1.49L108.5,81.4"/><path class="cls-1" d="M105.61,91.51h3.12c.74,0,.76,0,.58-.85L109,89.22s-.54-1.4,1.53-1.53a2,2,0,0,1,2.08,1.53l.38,2.66c0,2.28-.94,3.42-2.84,3.42h-5.45"/><polygon class="cls-1" points="125.37 86.54 125.63 82.67 122.14 82.67 121.89 86.54 125.37 86.54"/><polygon class="cls-1" points="129.12 86.54 131.07 82.67 127.64 82.67 125.68 86.54 129.12 86.54"/><path class="cls-1" d="M120.65,103h4.46s1,.1,1.51-1.81-.44-1.62-.44-1.62h-4.36"/><polyline class="cls-1" points="121.56 93.19 122.39 90.33 126.22 90.33 125.39 93.19"/><path class="cls-1" d="M80.49,76.87a1.9,1.9,0,0,0-1.63-.66H66.58s-.48,1.68-.69,2.4l-8.29,28.9c-.4,1.4.14,2.11,1.63,2.11a2.7,2.7,0,0,0,2.85-2.11l5.28-18.44h7.81a3.18,3.18,0,0,0,2-.67,3.3,3.3,0,0,0,1.19-1.77l2.3-8A1.89,1.89,0,0,0,80.49,76.87ZM74.55,85a1.16,1.16,0,0,1-1.21.91H68.26L68.81,84h6ZM76,80.11l-.3,1h-6l.27-.94a1.1,1.1,0,0,1,1.16-.88h4.28C75.9,79.34,76.1,79.6,76,80.11Z"/><path class="cls-1" d="M86.76,90.6H71.18a1.93,1.93,0,0,0-2,1.53c-.29,1,.09,1.53,1.15,1.53H71l-2.92,10.17-1,0A2.12,2.12,0,0,0,65,105.65a1.79,1.79,0,0,0,.06,1.24c.16.24.52.35,1.08.32l11.24-.83-.07.22c-.37,1.31.12,2,1.49,2a2.48,2.48,0,0,0,2.61-2l3.7-12.94h.76a1.93,1.93,0,0,0,2-1.53C88.21,91.11,87.82,90.6,86.76,90.6Zm-8.48,12.64-6.13.37.57-2h6Zm1.16-4h-6l.46-1.6h6Zm1.16-4h-6L75,93.66h6Z"/><path class="cls-1" d="M84.61,76.21s-.5,1.68-.7,2.4L81.59,86.7a2,2,0,0,0,.17,1.77,1.88,1.88,0,0,0,1.63.67h8L87,104.6c-.14.48.86,4.37,1.61,4a4.19,4.19,0,0,0,1.79-1.47,9.45,9.45,0,0,0,1.15-2.68L99,78.61c.21-.72.74-2.4.74-2.4ZM92.32,86H87.05c-.63,0-.86-.3-.68-.91L86.68,84H92.9ZM94,80.11l-.3,1H87.5l.27-.94a1.11,1.11,0,0,1,1.2-.88h4.47C94,79.34,94.16,79.6,94,80.11Z"/><path class="cls-1" d="M87.1,104.54a1.42,1.42,0,0,1-1.25,1s-1.12-.3-1.45,1.91c-.27,1.88,1.3,1.64,1.3,1.64h1.18a3.55,3.55,0,0,0,3.41-2.12"/><path class="cls-1" d="M83.75,105.5s-1.12-.3-1.45,1.91c-.27,1.88,1.29,1.64,1.29,1.64h2.88"/><rect class="cls-1" x="83.62" y="105.5" width="2.45" height="1.99"/><polyline class="cls-3" points="77.38 102.98 79.96 93.73 81 93.83 78.3 103.22"/></svg>