<?xml version="1.0" encoding="utf-8"?>
<!-- Generator: Adobe Illustrator 24.1.0, SVG Export Plug-In . SVG Version: 6.00 Build 0)  -->
<svg version="1.1" id="圖層_1" xmlns="http://www.w3.org/2000/svg" xmlns:xlink="http://www.w3.org/1999/xlink" x="0px" y="0px"
	 viewBox="0 0 150 150" style="enable-background:new 0 0 150 150;" xml:space="preserve">
<style type="text/css">
	.st0{fill:#003C81;}
	.st1{fill:#C81D1D;}
	.st2{fill:#FFFFFF;}
</style>
<path class="st0" d="M24.7,39.1c0,0-1.4-0.1-1.4-2.6s1.6-2.6,1.6-2.6h22.3l2,10.5c0.2,0.7,0.4,1.1,0.8,1.1h1.3c0,0,1.1,0,1,2.7
	c0,2.3-1.6,2.5-1.6,2.5h-4.4c-1.5-0.1-2.5-1.1-2.9-2.9l-1.6-8.7L24.7,39.1z M27.8,41.1L23,47.8c-0.9,1.7-2.6,2.7-4.5,2.9h-2.7
	c0,0-1.6,0-1.6-2.6s1.8-2.6,1.8-2.6h1.2c0.9,0,1.8-0.4,2.4-1.1l2.6-3.4L27.8,41.1z M11.3,70.3l1.3-4.6L31,45.4c0,0,1-1.1,4-0.8
	c3.5,0.3,2.9,2.8,2.9,2.8L22.3,64.6h15.2c1.1,0,1.1,0,0.8-1.3l-1.4-7c0,0,0-2.1,3.6-2.3c1.5-0.1,2.8,0.9,3.1,2.3l1.4,8.8
	c0,3.5-1.4,5.2-4.2,5.2L11.3,70.3L11.3,70.3z"/>
<path class="st0" d="M86.2,59.7c1.3-0.7,2.3-1.9,2.7-3.4l6.5-22.6H76.9l-4.3,15c2.7,0.9,4.2,3.8,3.4,6.6c0,0.1-0.1,0.2-0.1,0.4
	c-0.8,2.6-2.6,4.7-5,6l-1.5,3.1c-0.3,0.7-0.9,1.3-1.7,1.3c0,0-1.6-0.4-2,2.7c-0.3,2.6,1.8,2.2,1.8,2.2h1.6c2,0.1,3.9-1.1,4.7-2.9
	l4.1-7.9h1.5l-2,6.9c-0.7,2.5,0.2,3.8,2.6,3.9h5.6c0,0,1.3,0.2,2.1-2.6s-0.6-2.3-0.6-2.3h-1.9c-0.6,0-0.8-0.3-0.7-0.9L86.2,59.7z
	 M82.2,37.9h5.7l-1,3h-5.7L82.2,37.9z M82.9,54.2c-0.1,0.6-0.6,1-1.2,0.9h-4.8l0.9-3h5.7L82.9,54.2z M78.9,48.1l0.9-3h5.7l-0.9,3
	H78.9z"/>
<path class="st0" d="M61.4,55.6c1.1-3.2,3.6-5.8,6.9-6.8c1.9-2,3.6-4.2,5.1-6.5c0.4-0.9,0.5-1.8,0.4-2.7c-0.2-0.7-0.9-1-2-1H69
	l0.8-2.7c0.2-0.6,0.1-1.2-0.3-1.6c-0.6-0.3-1.2-0.5-1.8-0.5c-0.8,0-1.6,0.2-2.3,0.6c-0.6,0.4-1,0.9-1.3,1.5l-0.8,2.7h-2.5
	c-0.7,0-1.3,0.2-1.8,0.6c-0.5,0.5-0.8,1.1-1,1.8c-0.2,0.5-0.2,1.1,0,1.6c0.3,0.5,0.9,0.8,1.5,0.7h7.7c-3.2,3.9-7,7.2-11.2,9.9
	c-1.5,0.3-2.4,1.7-2.1,3.2c0,0.1,0.1,0.3,0.1,0.4c0.1,0.6,0.5,1.1,1,1.4c0.3,0.3,0.9,0.3,1.8,0c0.8-0.6,1.6-1.1,2.2-1.5l-3.6,12.4
	c-0.2,0.5,0,1.1,0.4,1.4c0.5,0.3,1.1,0.5,1.6,0.4c0.7,0,1.5-0.1,2.1-0.4c0.7-0.2,1.2-0.7,1.5-1.4l2.1-7.2
	C61.3,60.4,60.6,57.9,61.4,55.6z"/>
<path class="st1" d="M67.2,60.8c3.1-0.2,5.8-2.3,6.7-5.3c0.8-2-0.2-4.2-2.2-4.9c-0.5-0.2-1.1-0.3-1.7-0.3c-3.1,0.2-5.8,2.4-6.7,5.3
	c-0.8,1.9,0.2,4.1,2.1,4.9C66,60.8,66.5,60.8,67.2,60.8L67.2,60.8z"/>
<path class="st0" d="M55.8,90.8l-4.8,16.5c-0.3,1.3-1.5,2.2-2.8,2.1c-1.5,0-2-0.7-1.6-2.1l4.8-16.5"/>
<path class="st0" d="M22.2,108.9c1.5-0.7,3.7-4.7,3.9-5.2s1.2-2.3,0.4-3.3c-0.6-0.9-1.8-1.1-2.7-0.6c-1.4,0.7-0.9,3.4-3.8,5.9
	c-0.8,0.6-1,1.7-0.5,2.6C20,109.2,21.2,109.4,22.2,108.9z"/>
<path class="st0" d="M39.3,86.7h2c1.3,0,1.7,0.6,1.4,1.9c-0.2,1.1-1.3,1.9-2.4,1.8h-4.8l-0.8,2.9H39c1.3,0,1.8,0.6,1.4,1.9
	c-0.2,1.1-1.2,1.9-2.4,1.9h-4.4l-3,10.4c-0.3,1.3-1.5,2.2-2.8,2.1c-1.5,0-2-0.7-1.6-2.1l1.5-5.4l1.5-5h-4.8c-1.3,0-1.8-0.6-1.4-1.9
	c0.2-1.2,1.3-1.9,2.5-1.9h4.8l0.8-2.9h-5c-1.3,0-1.7-0.6-1.4-1.8c0.2-1.1,1.3-1.9,2.4-1.9h1.6 M40.3,82.1h-9.1h-2.4
	c-1.3,0-1.7-0.6-1.4-1.8c0.2-1.1,1.3-1.9,2.4-1.8h4.6l0.4-1.3c0.3-1.3,1.5-2.2,2.8-2.1c1.5,0,2,0.7,1.6,2.1l-0.4,1.3h4.5
	c1.2,0,1.7,0.6,1.3,1.8c-0.2,1.1-1.2,1.9-2.4,1.8H40.3 M43.3,90.6l3-10.4c0.2-0.7,0.6-1.3,1.2-1.7c0.6-0.3,1.3-0.4,2-0.1
	c3.1-0.6,6.1-1.5,9-2.6c0.9-0.5,2.1-0.3,2.8,0.6c1.1,1.3,0.7,2.3-1.4,3c-3.2,1-6.4,1.8-9.7,2.4l-1.5,4.9 M47.9,86.2H59
	c1.4,0,1.9,0.7,1.5,2c-0.3,1.2-1.4,2.1-2.7,2H47.4"/>
<polygon class="st0" points="33.5,86.8 33.8,82 29.6,82 29.3,86.8 "/>
<polygon class="st0" points="39.7,86.8 42,82 37.9,82 35.5,86.8 "/>
<path class="st0" d="M50.2,81.2l-4.5,15.2c-0.4,1.4-4.7,1.4-4.3,0L46,81.2"/>
<path class="st0" d="M39.6,106.1c-0.3-2.2-1-4.4-2.1-6.4c-0.6-0.9-1.4-1.9-2.7-1.5c-1.5,0.5-1.2,1.9-0.6,3.1
	c0.9,1.8,1.5,3.8,1.8,5.7c0.1,1,1,1.7,2,1.6C40,108.5,39.6,106.1,39.6,106.1z"/>
<path class="st0" d="M45.7,96.5c-1.7,3.7-3.7,8.8-6.2,11.2c-1.4,1.2-2.4,1.2-3,0.1l-0.1-0.1c-0.4-0.4-0.5-1-0.4-1.6
	c0.1-0.5,0.4-0.8,1-1.4c1.9-1.9,3.4-6,4.5-8.4"/>
<rect x="49.2" y="90.2" class="st2" width="7.9" height="1.4"/>
<path class="st0" d="M113.6,92.1l3.7-12.7L118,77h20.7l-0.7,2.4l-7.6,25.9c-0.2,0.8-0.6,1.6-1.1,2.3c-0.4,0.6-1.3,0.3-2.1,0.6
	c-0.9,0.4-2-2.2-2-2.2c0.4,0,0.8-0.3,0.9-0.8l6.9-23.6c0.2-0.6-0.1-0.9-0.7-0.9h-10.5c-0.6,0-1.1,0.3-1.2,0.9l-7.6,26.1
	c-0.3,1.2-1.4,2-2.6,1.9c-1.4,0-1.9-0.6-1.5-1.9l1.3-4.5"/>
<path class="st0" d="M125.5,92.4h1.7c1.2,0,1.6,0.6,1.3,1.6c-0.2,1-1.2,1.7-2.2,1.7h-7.7c-0.3,0-0.6-0.1-0.7-0.4
	c-0.1-0.3-0.1-0.6,0-0.9c0.2-0.6,0.5-1.1,0.9-1.5c0.4-0.4,0.9-0.6,1.5-0.6h1.6"/>
<path class="st0" d="M122.6,89.5h-1.5c-1.2,0-1.6-0.6-1.2-1.9c0.1-0.8,0.9-1.4,1.7-1.4h7.3c1.2,0,1.6,0.5,1.3,1.7
	c-0.2,1-1.2,1.7-2.2,1.6h-1.6"/>
<path class="st0" d="M122.6,95.2l-1,3.2c-0.1,0.3-0.2,0.7-0.2,1c0,0.2,0.2,0.2,0.4,0.2l-1,3.4c-1.8,0-2.8-0.3-3.2-1
	s-0.3-1.9,0.2-3.7l0.9-3.2"/>
<path class="st0" d="M113.7,104.6c-0.3-2.2-1-4.3-2.1-6.2c-0.6-0.9-1.4-1.9-2.6-1.4c-1.5,0.5-1.2,1.9-0.6,3c0.9,1.8,1.4,3.7,1.7,5.6
	c0.1,1,1,1.7,2,1.6C114.1,107,113.7,104.6,113.7,104.6z"/>
<path class="st0" d="M97.1,106.3c1.5-0.7,3.7-4.6,3.9-5.1s1.2-2.3,0.4-3.3c-0.6-0.9-1.8-1.1-2.7-0.6c-1.4,0.7-0.9,3.4-3.8,5.8
	c-0.8,0.6-1,1.7-0.5,2.5C95,106.6,96.2,106.8,97.1,106.3z"/>
<path class="st0" d="M108,91.5h-3.2l9.9-9.3L111,81l-1.8,1.7h-2.1l3.2-2.9l-3.6-1.2l-4.2,3.9c-0.3,0.2-0.6,0.5-0.7,0.9l-0.9,3.1h4.3
	l-4.6,4.3c-0.7,0.5-1.4,1.2-1.7,2l-0.8,2.6h7.4V95h1.6v0.4h1.2c0.9,0,1.8-0.3,2.5-0.9c0.6-0.4,1-1,1.2-1.6"/>
<path class="st0" d="M108,94.5l-3.9,13.3c-0.3,1.1-1.3,1.9-2.5,1.8c-1.3,0-1.8-0.6-1.5-1.8l3.8-13"/>
<path class="st0" d="M126.4,104.6c-0.2,0.6-0.7,1-1.3,1c0,0-1.2,0.1-1.5,1.9s1.3,1.6,1.3,1.6h1.2c1.5,0.1,2.9-0.8,3.5-2.1"/>
<path class="st0" d="M123,105.6c0,0-1.1-0.3-1.5,1.9c-0.3,1.9,1.3,1.6,1.3,1.6h2.9"/>
<rect x="122.9" y="105.6" class="st0" width="2.5" height="2"/>
<path class="st0" d="M108.6,83.3l2.9-2.8c0,0,0.6-0.6,2.3-0.4c2,0.2,1.7,1.6,1.7,1.6l-3.9,3.7"/>
<path class="st0" d="M105.7,79.5l2.8-2.7c0.6-0.4,1.4-0.6,2.2-0.4c1.9,0.2,1.6,1.5,1.6,1.5l-3.8,3.5"/>
<path class="st0" d="M105.6,91.5h3.1c0.7,0,0.8,0,0.6-0.8l-0.3-1.4c0,0-0.5-1.4,1.5-1.5c1-0.1,1.9,0.6,2.1,1.5l0.4,2.7
	c0,2.3-0.9,3.4-2.8,3.4h-5.4"/>
<polygon class="st0" points="125.4,86.5 125.6,82.7 122.1,82.7 121.9,86.5 "/>
<polygon class="st0" points="129.1,86.5 131.1,82.7 127.6,82.7 125.7,86.5 "/>
<path class="st0" d="M120.7,103h4.5c0,0,1,0.1,1.5-1.8s-0.4-1.6-0.4-1.6h-4.4"/>
<polyline class="st0" points="121.6,93.2 122.4,90.3 126.2,90.3 125.4,93.2 "/>
<path class="st0" d="M80.5,76.9c-0.4-0.5-1-0.7-1.6-0.7H66.6c0,0-0.5,1.7-0.7,2.4l-8.3,28.9c-0.4,1.4,0.1,2.1,1.6,2.1
	c1.3,0.1,2.6-0.8,2.8-2.1l5.3-18.4h7.8c0.7,0,1.4-0.2,2-0.7c0.6-0.4,1-1.1,1.2-1.8l2.3-8C80.9,78.1,80.8,77.4,80.5,76.9z M74.6,85
	c-0.1,0.6-0.6,0.9-1.2,0.9h-5.1l0.5-1.9h6L74.6,85z M76,80.1l-0.3,1h-6l0.3-0.9c0.1-0.5,0.6-0.9,1.2-0.9h4.3
	C75.9,79.3,76.1,79.6,76,80.1z"/>
<path class="st0" d="M86.8,90.6H71.2c-1-0.1-1.8,0.6-2,1.5c-0.3,1,0.1,1.5,1.2,1.5H71l-2.9,10.2h-1c-1,0-1.9,0.8-2.1,1.8
	c-0.1,0.4-0.1,0.8,0.1,1.2c0.2,0.2,0.5,0.3,1.1,0.3l11.2-0.8l-0.1,0.2c-0.4,1.3,0.1,2,1.5,2c1.3,0.1,2.4-0.8,2.6-2l3.7-12.9h0.8
	c1,0.1,1.8-0.6,2-1.5C88.2,91.1,87.8,90.6,86.8,90.6z M78.3,103.2l-6.1,0.4l0.6-2h6L78.3,103.2z M79.4,99.2h-6l0.5-1.6h6L79.4,99.2z
	 M80.6,95.2h-6l0.4-1.6h6L80.6,95.2z"/>
<path class="st0" d="M84.6,76.2c0,0-0.5,1.7-0.7,2.4l-2.3,8.1c-0.2,0.6-0.2,1.2,0.2,1.8c0.4,0.5,1,0.7,1.6,0.7h8L87,104.6
	c-0.1,0.5,0.9,4.4,1.6,4c0.7-0.3,1.3-0.8,1.8-1.5c0.5-0.8,0.9-1.7,1.2-2.7L99,78.6c0.2-0.7,0.7-2.4,0.7-2.4H84.6z M92.3,86h-5.3
	c-0.6,0-0.9-0.3-0.7-0.9l0.3-1.1h6.2L92.3,86z M94,80.1l-0.3,1h-6.2l0.3-0.9c0.1-0.6,0.6-0.9,1.2-0.9h4.5C94,79.3,94.2,79.6,94,80.1
	z"/>
<path class="st0" d="M87.1,104.5c-0.2,0.6-0.7,1-1.2,1c0,0-1.1-0.3-1.4,1.9c-0.3,1.9,1.3,1.6,1.3,1.6h1.2c1.5,0.1,2.8-0.8,3.4-2.1"
	/>
<path class="st0" d="M83.8,105.5c0,0-1.1-0.3-1.4,1.9c-0.3,1.9,1.3,1.6,1.3,1.6h2.9"/>
<rect x="83.6" y="105.5" class="st0" width="2.4" height="2"/>
<polyline class="st2" points="77.4,103 80,93.7 81,93.8 78.3,103.2 "/>
</svg>
