<svg id="圖層_1" data-name="圖層 1" xmlns="http://www.w3.org/2000/svg" viewBox="0 0 150 150"><defs><style>.cls-1{fill:#003c81;}.cls-2{fill:#c81d1d;}.cls-3{fill:#fff;}</style></defs><path class="cls-1" d="M46.29,42.44s-1.39-.13-1.39-2.59,1.64-2.6,1.64-2.6h22.3l2,10.53c.16.71.4,1.06.78,1.06h1.27s1.06,0,1,2.7c0,2.3-1.63,2.5-1.63,2.5H67.85c-1.52-.1-2.48-1.06-2.86-2.89l-1.63-8.71Zm3.15,2-4.81,6.71A5.74,5.74,0,0,1,40.09,54H37.37s-1.63,0-1.63-2.6,1.83-2.6,1.83-2.6h1.18a3.14,3.14,0,0,0,2.36-1.06l2.6-3.36ZM33,73.65l1.27-4.57L52.68,48.67s1-1.08,4-.79c3.49.34,2.9,2.76,2.9,2.76L43.89,67.92H59.05c1.09,0,1.12,0,.84-1.29l-1.38-7s0-2.09,3.61-2.32a2.9,2.9,0,0,1,3.08,2.32l1.43,8.84c0,3.47-1.4,5.2-4.23,5.2H33Z"/><path class="cls-1" d="M107.78,63a5.85,5.85,0,0,0,2.74-3.38L117.05,37H98.58L94.27,52a5.24,5.24,0,0,1,3.36,6.55,2.53,2.53,0,0,1-.12.36,10.46,10.46,0,0,1-5,6L91,68.09a2,2,0,0,1-1.74,1.32s-1.55-.41-2,2.65c-.34,2.6,1.82,2.25,1.82,2.25H90.7a4.93,4.93,0,0,0,4.72-2.94l4.13-7.89h1.53l-2,6.91c-.7,2.5.17,3.8,2.61,3.92h5.57s1.32.15,2.1-2.57-.62-2.3-.62-2.3h-1.86c-.62,0-.83-.31-.65-.93Zm-3.94-21.78h5.72l-1,3h-5.71Zm.7,16.33a1.16,1.16,0,0,1-1.19.93h-4.8l.92-3h5.71Zm-4-6.09.93-3h5.72l-.93,3Z"/><path class="cls-1" d="M83,58.92a10.64,10.64,0,0,1,6.86-6.84A46.08,46.08,0,0,0,95,45.55a5.77,5.77,0,0,0,.45-2.72c-.24-.7-.91-1-2-1H90.63l.79-2.73a1.62,1.62,0,0,0-.34-1.63A4,4,0,0,0,89.24,37a4.9,4.9,0,0,0-2.3.6,3.21,3.21,0,0,0-1.27,1.5l-.79,2.73H82.43a2.56,2.56,0,0,0-1.81.6,4.69,4.69,0,0,0-1,1.8,2.4,2.4,0,0,0,0,1.63,1.79,1.79,0,0,0,1.5.74h7.71a48.1,48.1,0,0,1-11.2,9.9,2.75,2.75,0,0,0-2.14,3.22l.12.39a2.05,2.05,0,0,0,1,1.36c.34.3.94.3,1.81,0,.84-.61,1.64-1.1,2.25-1.5L77.08,72.36a1.1,1.1,0,0,0,.44,1.36,2.46,2.46,0,0,0,1.63.45,4.77,4.77,0,0,0,2.11-.45,2.13,2.13,0,0,0,1.48-1.36l2.09-7.22A5.47,5.47,0,0,1,83,58.92Z"/><path class="cls-2" d="M88.78,64.11a7.5,7.5,0,0,0,6.69-5.34,3.82,3.82,0,0,0-2.16-4.94,3.7,3.7,0,0,0-1.68-.25A7.56,7.56,0,0,0,85,58.92a3.81,3.81,0,0,0,3.81,5.19Z"/><path class="cls-1" d="M52,94.09,47.19,110.6a2.69,2.69,0,0,1-2.84,2.11c-1.47,0-2-.7-1.59-2.11l4.76-16.51"/><path class="cls-1" d="M18.26,112.2c1.53-.69,3.69-4.7,3.91-5.22s1.16-2.32.39-3.33a2,2,0,0,0-2.7-.59c-1.43.72-.9,3.43-3.84,5.93a1.88,1.88,0,0,0-.46,2.57A2,2,0,0,0,18.26,112.2Z"/><path class="cls-1" d="M35.43,90h2c1.27,0,1.72.62,1.37,1.86a2.31,2.31,0,0,1-2.42,1.82H31.57l-.82,2.88H35.1c1.29,0,1.76.62,1.4,1.86a2.34,2.34,0,0,1-2.4,1.88H29.7l-3,10.45a2.67,2.67,0,0,1-2.8,2.12c-1.49,0-2-.71-1.63-2.12l1.52-5.45,1.46-5H20.43c-1.29,0-1.75-.62-1.4-1.86a2.34,2.34,0,0,1,2.47-1.86h4.81l.79-2.9h-5c-1.26,0-1.72-.61-1.37-1.82A2.31,2.31,0,0,1,23.16,90h1.63m11.59-4.62H24.93c-1.26,0-1.72-.6-1.37-1.82A2.26,2.26,0,0,1,26,81.79h4.59l.36-1.28a2.68,2.68,0,0,1,2.84-2.11c1.47,0,2,.7,1.6,2.11L35,81.79H39.5c1.24,0,1.69.59,1.35,1.78a2.28,2.28,0,0,1-2.38,1.82H36.38m3,8.57,3-10.39a2.63,2.63,0,0,1,1.25-1.69,2.34,2.34,0,0,1,2-.13,65.17,65.17,0,0,0,9-2.59,2.16,2.16,0,0,1,2.75.59q1.68,2-1.4,3a85.68,85.68,0,0,1-9.73,2.37L44.78,90M44,89.47H55.1c1.41,0,1.92.66,1.53,2a2.57,2.57,0,0,1-2.7,2H43.46"/><polygon class="cls-1" points="29.6 90.06 29.9 85.32 25.73 85.32 25.42 90.06 29.6 90.06"/><polygon class="cls-1" points="35.76 90.06 38.11 85.32 33.99 85.32 31.65 90.06 35.76 90.06"/><path class="cls-1" d="M46.34,84.53,41.87,99.71c-.39,1.36-4.67,1.36-4.28,0L42.1,84.53"/><path class="cls-1" d="M35.68,109.37A18.77,18.77,0,0,0,33.62,103c-.6-.89-1.39-1.9-2.65-1.47-1.48.5-1.24,1.91-.63,3.11a20.54,20.54,0,0,1,1.76,5.74,1.85,1.85,0,0,0,2,1.62C36.1,111.77,35.68,109.37,35.68,109.37Z"/><path class="cls-1" d="M41.84,99.79c-1.74,3.72-3.74,8.77-6.24,11.18q-2.07,1.82-3,.11l-.06-.07a1.74,1.74,0,0,1-.39-1.6c.12-.53.41-.81,1-1.37,1.93-1.93,3.37-6,4.48-8.38"/><rect class="cls-3" x="24.14" y="85.39" width="14.89" height="0.82"/><path class="cls-1" d="M109.74,95.36l3.69-12.65.67-2.4h20.66l-.66,2.4-7.57,25.9a7.35,7.35,0,0,1-1.09,2.34c-.43.56-1.33.3-2,.61-.94.38-2-2.2-2-2.2a1,1,0,0,0,.94-.75L129.23,85c.18-.6,0-.9-.68-.9H118a1.13,1.13,0,0,0-1.21.9l-7.64,26.11a2.42,2.42,0,0,1-2.56,1.89c-1.36,0-1.86-.63-1.49-1.89l1.3-4.47"/><path class="cls-1" d="M121.64,95.74h1.67c1.16,0,1.58.55,1.26,1.64A2.11,2.11,0,0,1,122.35,99h-7.7a.76.76,0,0,1-.73-.36,1.15,1.15,0,0,1,0-.89,3,3,0,0,1,.88-1.47,2,2,0,0,1,1.46-.57h1.59"/><path class="cls-1" d="M118.68,92.85h-1.47c-1.17,0-1.56-.63-1.19-1.89a1.66,1.66,0,0,1,1.69-1.4H125q1.74,0,1.26,1.65a2.12,2.12,0,0,1-2.19,1.64h-1.56"/><path class="cls-1" d="M118.65,98.48l-1,3.25a2.81,2.81,0,0,0-.18,1c0,.15.15.23.41.23l-1,3.43c-1.77,0-2.84-.33-3.21-1s-.3-1.89.22-3.68l.93-3.18"/><path class="cls-1" d="M109.77,107.94a17.83,17.83,0,0,0-2.07-6.23c-.59-.88-1.38-1.87-2.64-1.45-1.49.5-1.24,1.88-.63,3a19.77,19.77,0,0,1,1.73,5.63,1.85,1.85,0,0,0,2,1.58C110.22,110.31,109.77,107.94,109.77,107.94Z"/><path class="cls-1" d="M93.19,109.64c1.54-.68,3.69-4.61,3.92-5.12s1.15-2.27.39-3.27a2,2,0,0,0-2.71-.58c-1.42.71-.9,3.37-3.84,5.82a1.83,1.83,0,0,0-.46,2.52A2.07,2.07,0,0,0,93.19,109.64Z"/><path class="cls-1" d="M104.1,94.83h-3.17l9.92-9.27-3.75-1.25L105.29,86h-2.11l3.21-2.89-3.62-1.19L98.54,85.8a1.77,1.77,0,0,0-.69.88l-.91,3.09h4.33l-4.6,4.33a4.89,4.89,0,0,0-1.74,2l-.75,2.56h7.44v-.37h1.58v.37h1.17a4.11,4.11,0,0,0,2.49-.91,3.42,3.42,0,0,0,1.24-1.64"/><path class="cls-1" d="M104.1,97.79l-3.9,13.32a2.34,2.34,0,0,1-2.46,1.82c-1.34,0-1.84-.61-1.48-1.82l3.81-13"/><path class="cls-1" d="M122.54,107.94a1.45,1.45,0,0,1-1.27,1s-1.25.09-1.48,1.91,1.32,1.64,1.32,1.64h1.2a3.65,3.65,0,0,0,3.48-2.12"/><path class="cls-1" d="M119.1,108.89s-1.14-.29-1.48,1.91c-.28,1.88,1.32,1.64,1.32,1.64h2.94"/><rect class="cls-1" x="118.99" y="108.89" width="2.5" height="1.98"/><path class="cls-1" d="M104.67,86.58l2.92-2.79s.6-.61,2.3-.44c2,.19,1.67,1.55,1.67,1.55l-3.92,3.65"/><path class="cls-1" d="M101.76,82.82l2.79-2.67a2.73,2.73,0,0,1,2.2-.42c1.92.18,1.6,1.49,1.6,1.49l-3.75,3.49"/><path class="cls-1" d="M101.71,94.82h3.12c.74,0,.76,0,.58-.85l-.31-1.44s-.54-1.4,1.53-1.53a2,2,0,0,1,2.08,1.53l.38,2.66c0,2.28-.94,3.42-2.84,3.42H100.8"/><polygon class="cls-1" points="121.47 89.85 121.73 85.98 118.24 85.98 117.99 89.85 121.47 89.85"/><polygon class="cls-1" points="125.22 89.85 127.17 85.98 123.74 85.98 121.78 89.85 125.22 89.85"/><path class="cls-1" d="M116.75,106.31h4.46s1,.1,1.51-1.81-.44-1.62-.44-1.62h-4.36"/><polyline class="cls-1" points="117.66 96.5 118.49 93.64 122.32 93.64 121.49 96.5"/><path class="cls-1" d="M76.59,80.18A1.88,1.88,0,0,0,75,79.52H62.68s-.48,1.68-.69,2.4l-8.29,28.9c-.4,1.4.14,2.11,1.63,2.11a2.71,2.71,0,0,0,2.85-2.11l5.28-18.44h7.81a3.22,3.22,0,0,0,2-.67,3.36,3.36,0,0,0,1.19-1.77l2.3-8A1.9,1.9,0,0,0,76.59,80.18Zm-5.94,8.13a1.17,1.17,0,0,1-1.21.91H64.36l.55-1.91h6Zm1.45-4.89-.3,1h-6l.27-.94a1.09,1.09,0,0,1,1.16-.88h4.28C72,82.65,72.2,82.91,72.1,83.42Z"/><path class="cls-1" d="M82.86,93.91H67.28a1.93,1.93,0,0,0-2,1.53c-.29,1,.09,1.53,1.15,1.53h.67l-2.92,10.17h-1A2.11,2.11,0,0,0,61.1,109a1.77,1.77,0,0,0,.06,1.24c.16.24.52.35,1.08.32l11.24-.83-.07.22c-.37,1.31.12,2,1.49,2a2.49,2.49,0,0,0,2.61-2L81.21,97H82a1.94,1.94,0,0,0,2-1.53C84.31,94.42,83.92,93.91,82.86,93.91Zm-8.48,12.64-6.13.37.57-2h6Zm1.16-4h-6L70,101h6Zm1.16-4h-6L71.1,97h6Z"/><path class="cls-1" d="M80.71,79.52s-.5,1.68-.7,2.4L77.69,90a2,2,0,0,0,.17,1.77,1.88,1.88,0,0,0,1.63.67h8L83.1,107.91c-.14.48.86,4.37,1.61,4a4.35,4.35,0,0,0,1.79-1.47,9.48,9.48,0,0,0,1.15-2.68L95.1,81.92c.21-.72.74-2.4.74-2.4Zm7.71,9.79H83.15c-.63,0-.86-.3-.68-.91l.31-1.09H89Zm1.68-5.89-.3,1H83.6l.27-.94a1.1,1.1,0,0,1,1.2-.88h4.47C90.1,82.65,90.26,82.91,90.1,83.42Z"/><path class="cls-1" d="M83.2,107.85a1.44,1.44,0,0,1-1.25,1s-1.12-.3-1.45,1.91c-.27,1.88,1.3,1.64,1.3,1.64H83a3.57,3.57,0,0,0,3.41-2.12"/><path class="cls-1" d="M79.85,108.81s-1.12-.3-1.45,1.91c-.27,1.88,1.29,1.64,1.29,1.64h2.88"/><rect class="cls-1" x="79.72" y="108.81" width="2.45" height="1.99"/><polyline class="cls-3" points="73.48 106.29 76.06 97.04 77.1 97.14 74.4 106.53"/></svg>