<svg xmlns="http://www.w3.org/2000/svg" width="112.403" height="26.211" viewBox="0 0 112.403 26.211"><defs><style>.a{fill:#fff;}</style></defs><g transform="translate(0)"><path class="a" d="M26.727,0H.154A.153.153,0,0,0,0,.151V21.028a.152.152,0,0,0,.126.151l3.6.63c.562-2.971,1.138-6.037,1.377-7.256.3-1.547.731-5.148,3.176-5.148A4.55,4.55,0,0,1,4.5,6.9,27.6,27.6,0,0,1,2.965,2.6V2.56a.139.139,0,0,1,.141-.137H16.047c4.539,0,8.909,3.19,8.3,8.447-.534,4.641-3.625,8.023-7.925,8.023h-4a.139.139,0,0,0-.141.123l-.731,4.162,2.867.52c1.405.26,4.314.808,5.1,2.437a.156.156,0,0,0,.15.075.154.154,0,0,0,.131-.1,4.521,4.521,0,0,1,2.473-3,31.448,31.448,0,0,1,4.5-1.533.151.151,0,0,0,.112-.151V.151A.153.153,0,0,0,26.727,0Z" transform="translate(0)"/><path class="a" d="M75.613,40.807H73.6l.337-1.944h1.251a.1.1,0,0,0,.1-.082l.422-2.41a.1.1,0,0,0-.07-.11H74.4l.281-1.7a.134.134,0,0,0-.02-.105.141.141,0,0,0-.092-.059H72.129a.139.139,0,0,0-.141.123l-.3,1.752H69.669l.3-1.711a.134.134,0,0,0-.02-.105.141.141,0,0,0-.092-.059H67.407a.139.139,0,0,0-.141.123l-.3,1.752H64.5a.1.1,0,0,0-.1.1h0a2.511,2.511,0,0,0,2.122,2.464l-.337,1.971H64.5a.1.1,0,0,0-.1.1h0a2.485,2.485,0,0,0,1.392,2.218l-.338,1.985a.151.151,0,0,0,.126.164H68a.139.139,0,0,0,.141-.123l.3-1.752h2.023l-.3,1.711a.134.134,0,0,0,.025.11.142.142,0,0,0,.1.054h2.431a.139.139,0,0,0,.141-.123l.3-1.752h2.024a.1.1,0,0,0,.1-.082L75.7,40.9a.1.1,0,0,0-.07-.11Zm-6.717,0,.323-1.944h2.023l-.337,1.944Z" transform="translate(-55.351 -29.69)"/><path class="a" d="M246.643,56.448a13.143,13.143,0,0,1-1.349,3.6L244.1,59.3a10.313,10.313,0,0,0,1.237-3.121Zm-2.29-3.19v-1.3h1.419a7.922,7.922,0,0,0-.576-1.246l1.265-.479a15.2,15.2,0,0,1,.6,1.725h1.223c.2-.561.379-1.123.534-1.725l1.293.452a9.766,9.766,0,0,1-.52,1.273h1.377v1.3h-2.557v1.1h2.333V55.64h-2.333v4.833h-1.447V55.64h-2.389V54.354h2.389v-1.1Zm2.543-4.381a7.5,7.5,0,0,0-.548-.931l1.5-.246c.169.356.309.753.492,1.177h2.529v1.3h-6.38v-1.3Zm3.766,9.529-1.208.465a21.246,21.246,0,0,0-.787-2.464l1.194-.3a22.631,22.631,0,0,1,.787,2.314Zm6.169-9.2a15.766,15.766,0,0,1-3.892.7V52h4.2v1.355h-1.279v7.078h-1.447V53.354h-1.49v1.273a10.221,10.221,0,0,1-1.644,5.764l-1.04-1.068a8.386,8.386,0,0,0,1.279-4.7V48.74a13.939,13.939,0,0,0,4.609-.794Z" transform="translate(-209.799 -41.17)"/><path class="a" d="M370.637,55.962h-4.089V63.93H365.1V51.8h5.551Zm-1.419-3.135h-2.67v.548h2.67Zm-2.67,2.108h2.67v-.616h-2.67Zm.913,2.82V56.564h7.068v1.191h-.913v3.491h1.11v1.191h-1.11V63.7h-1.279v-1.26H367.32V61.246h1.012V57.755Zm2.178,0v.561h2.7v-.561Zm2.7,2.04v-.548h-2.712V59.8Zm0,1.451v-.52h-2.712v.52Zm-.717-5.271V51.8h5.48V62.6q0,1.3-1.419,1.3c-.45,0-.885-.027-1.321-.055l-.337-1.26a8.75,8.75,0,0,0,1.138.082.443.443,0,0,0,.478-.507V55.976Zm4.047-3.121h-2.628v.52h2.614Zm-2.628,2.095h2.614v-.63h-2.614Z" transform="translate(-313.796 -44.708)"/><path class="a" d="M490.347,50.946l-.112,1.191h2.08v1.109h-2.192l-.112,1.177h-7.925l.183-1.177H480.3v-1.1h2.136l.169-1.191Zm.225,3.943v4.477h-1.321q1.385.24,2.74.616l-.464,1.123a26.979,26.979,0,0,0-4.216-1.136l.337-.616h-2.8l.45.589a16.009,16.009,0,0,1-4.2,1.191l-.66-1.1a23.612,23.612,0,0,0,3.372-.657h-1.771v-4.49Zm1.56-3.135h-1.363v-1.3h-8.937V51.74h-1.363V49.358h5.1a6.891,6.891,0,0,0-.351-.712l1.461-.246c.126.287.253.616.379.958h5.087V51.74Zm-2.923,4.395v-.465h-5.8v.465Zm0,1.164v-.452h-5.8v.452Zm0,.739h-5.8v.465h5.818Zm-3.724-4.408.084-.534h-1.981l-.1.534Zm.211-1.314.1-.548h-1.967l-.1.548Zm1.054,1.314h2.023l.07-.534h-2Zm.211-1.314h1.981l.056-.548h-1.939Z" transform="translate(-412.808 -41.774)"/><path class="a" d="M593.624,57.34a32.445,32.445,0,0,1-.3,3.82l-.829-.246a26.852,26.852,0,0,0,.351-3.669Zm4.384-1.752q0,4.6-.379,5.38a1.48,1.48,0,0,1-1.475.78l-.661-.027-.281-1.136a4.6,4.6,0,0,0,.731.068.785.785,0,0,0,.857-.767c.014-.123.028-.274.056-.438l-.576.219c-.127-.808-.281-1.615-.45-2.4l.646-.178c.169.712.3,1.355.408,1.958.028-.575.042-1.328.042-2.273h-3.92V49.742h4.974v1.2h-1.574v.835h1.18v1.082h-1.18v.821h1.18v1.082h-1.18v.794Zm-3.218,5.093-.829.11q-.021-2.177-.084-3.368l.731-.082c.084.821.155,1.93.2,3.34Zm-.548-9.72V51.8h.9v-.835Zm0,2.752h.913v-.821h-.9Zm0,1.876h.913v-.794h-.9Zm1.714,4.367-.759.178c-.1-1.027-.211-1.958-.351-2.738l.675-.137c.183.821.323,1.725.45,2.7Zm2.8,1.971-1.04-.876a7.454,7.454,0,0,0,1.967-3.34l1.209.479c-.1.274-.2.52-.281.767a9.662,9.662,0,0,1,1,1.013l-.885.876a5.916,5.916,0,0,0-.618-.767A8.018,8.018,0,0,1,598.753,61.927Zm-.211-8.461-.745-1.1a8.514,8.514,0,0,0,3.26-2.971h1.152a8.29,8.29,0,0,0,3.33,2.875l-.731,1.1c-.379-.205-.731-.411-1.04-.616v.534h-4.286v-.411a9.542,9.542,0,0,1-.941.589Zm2.937.493v3.655h-3.021V53.959ZM600.369,55h-.815v1.574h.815Zm1.251-4.381a10.047,10.047,0,0,1-1.279,1.533h2.628a7.621,7.621,0,0,1-1.335-1.533Zm.365,11.295-1.026-.89a7.31,7.31,0,0,0,1.967-3.286l1.209.479c-.112.3-.211.589-.309.849a16.121,16.121,0,0,1,1.714,1.9l-.927.917a11.87,11.87,0,0,0-1.321-1.711,7.461,7.461,0,0,1-1.307,1.739Zm2.909-7.954v3.655h-3.007V53.959ZM603.812,55h-.8v1.574h.8Z" transform="translate(-509.242 -42.637)"/><path class="a" d="M713.156,51.862v-2.9h5.227a8.591,8.591,0,0,0-.632-.986L719.4,47.7a13.6,13.6,0,0,1,.576,1.26h5.255v2.889h-1.293v.63h-1.981a20.211,20.211,0,0,1,2.5,2.273L723.386,55.8a9.889,9.889,0,0,0-.815-.972l-2.628.192v1.136h4.272v1.314h-4.286v1.246H725.3v1.314H713.1V58.721h5.368V57.475h-4.244V56.161h4.244V55.134l-3.766.192-.337-1.218a1.356,1.356,0,0,0,.309-.123,6.253,6.253,0,0,0,1.7-1.492h-1.911v-.63Zm10.581-1.588h-9.106v.917h9.106Zm-7.026,3.792c1.6-.068,3.2-.164,4.792-.288l-.843-.726.576-.561h-3.2a12.953,12.953,0,0,1-1.321,1.574Z" transform="translate(-612.895 -41.17)"/></g></svg>