<svg xmlns="http://www.w3.org/2000/svg" width="39" height="30" viewBox="0 0 39 30"><defs><style>.a{fill:#fff;}</style></defs><g transform="translate(0.003 0.02)"><path class="a" d="M.333,18.215c.84,1.107,3.115,2.723,4.331,2.186.586-.271,1.438-1.8-.917-2.513a3.3,3.3,0,0,1-1.665-1.349A1.188,1.188,0,0,0,.37,16.494a1.212,1.212,0,0,0-.036,1.713Z" transform="translate(0 -9.695)"/><path class="a" d="M52.57,21.121a1.127,1.127,0,0,0,.893-1.317c-.085-.614-.529-.966-1.3-.889a16.072,16.072,0,0,0-4.04.784.988.988,0,0,0-.428,1.487c.3.545.61.719,1.459.525Z" transform="translate(-28.527 -11.342)"/><path class="a" d="M38.488,1.275c-.949.4-2.291,2.9-2.424,3.232s-.723,1.43-.25,2.057a1.236,1.236,0,0,0,1.669.372c.881-.444.566-2.121,2.388-3.636a1.176,1.176,0,0,0,.287-1.592,1.265,1.265,0,0,0-1.669-.432Z" transform="translate(-21.38 -0.68)"/><path class="a" d="M15.039,1.79a12.727,12.727,0,0,0,1.394,4.335c.4.61.937,1.3,1.8,1.01,1.014-.343.848-1.3.436-2.117A13.868,13.868,0,0,1,17.5,1.1,1.265,1.265,0,0,0,16.1-.012C14.74.15,15.039,1.79,15.039,1.79Z" transform="translate(-9.007 0)"/><path class="a" d="M84.215,58.422a1.4,1.4,0,0,0,.663-.84l1.616-5.592H81.933l-1.067,3.7a1.305,1.305,0,0,1,.808,1.721,2.614,2.614,0,0,1-1.232,1.5l-.384.76a.5.5,0,0,1-.432.307s-.4-.1-.493.659c-.1.642.44.562.44.562H80a1.212,1.212,0,0,0,1.168-.719l1.018-1.951h.4l-.5,1.721c-.174.614.04.933.646.958h1.378s.327.036.521-.63-.17-.594-.17-.594h-.477c-.158,0-.21-.077-.166-.23Zm-.978-5.394h1.418l-.246.735H82.991Zm.174,4.04a.291.291,0,0,1-.295.23H81.929l.226-.735h1.414ZM82.43,55.55l.234-.727h1.418l-.23.747Z" transform="translate(-47.498 -31.226)"/><path class="a" d="M73.736,57.417a2.659,2.659,0,0,1,1.7-1.7A11.022,11.022,0,0,0,76.706,54.1a1.333,1.333,0,0,0,.113-.667c-.057-.178-.222-.263-.493-.263h-.695l.194-.675a.368.368,0,0,0-.085-.4.986.986,0,0,0-.457-.1,1.212,1.212,0,0,0-.574.145.78.78,0,0,0-.311.372l-.194.675h-.61a.671.671,0,0,0-.453.145,1.374,1.374,0,0,0-.251.453.638.638,0,0,0,0,.4.428.428,0,0,0,.356.186h1.911a11.931,11.931,0,0,1-2.78,2.469.675.675,0,0,0-.5.9.513.513,0,0,0,.267.335q.133.109.448,0,.311-.226.558-.376l-.885,3.046a.275.275,0,0,0,.109.335.642.642,0,0,0,.4.109,1.212,1.212,0,0,0,.521-.109.537.537,0,0,0,.339-.335l.517-1.79a1.37,1.37,0,0,1-.42-1.543Z" transform="translate(-43.155 -31.232)"/><path class="a" d="M78.508,64.724a1.863,1.863,0,0,0,1.713-1.244.945.945,0,0,0-.869-1.329A1.871,1.871,0,0,0,77.639,63.4a.941.941,0,0,0,.869,1.325Z" transform="translate(-46.566 -37.281)"/><path class="a" d="M6.372,35.3,1.12,42.795l6.626,4.553L6.178,38.46a6.836,6.836,0,0,1,.194-3.16Z" transform="translate(-0.669 -21.28)"/><path class="a" d="M30.7,15.214c-.376-.687-.234-1.96.57-2.218h.04l.521-.174-2.448-1.669a1.782,1.782,0,0,1-.614.687A1.862,1.862,0,0,1,25.774,11,3.358,3.358,0,0,1,26,8.879l-.634-.489L20.19,15.76a6.824,6.824,0,0,1,10.489,7.826l5.454-7.794-.263-.238c-1.277.218-2.808.57-2.808.57A1.8,1.8,0,0,1,30.7,15.214Z" transform="translate(-12.154 -5.012)"/><path class="a" d="M22.67,53.941,23.753,60.1l1,.683,5.41-7.725a6.82,6.82,0,0,1-7.495.881Z" transform="translate(-13.611 -31.864)"/><path class="a" d="M24.971,38.167a4.093,4.093,0,1,0-4.743-3.321,4.093,4.093,0,0,0,4.743,3.321Z" transform="translate(-12.109 -18.043)"/><path class="a" d="M49.431,53.425s-.339-.028-.339-.638.4-.646.4-.646h5.527l.5,2.61c.04.178.105.267.2.267h.3s.267,0,.242.663c0,.574-.4.622-.4.622H54.776c-.38-.024-.614-.267-.711-.719l-.4-2.158Zm.784.493L49,55.582a1.41,1.41,0,0,1-1.119.719h-.655s-.4,0-.4-.646.465-.638.465-.638h.291a.764.764,0,0,0,.582-.267l.646-.832Zm-4.085,7.24.319-1.135,4.566-5.05s.259-.271.994-.2c.865.089.719.687.719.687l-3.887,4.275H52.59c.275,0,.283,0,.214-.319l-.343-1.737s0-.517.893-.57a.723.723,0,0,1,.768.57l.352,2.194c0,.857-.347,1.285-1.05,1.285Z" transform="translate(-27.712 -31.316)"/></g></svg>