<svg id="圖層_1" data-name="圖層 1" xmlns="http://www.w3.org/2000/svg" viewBox="0 0 320.65 72.23"><defs><style>.cls-1{fill:#c81d1d;}.cls-2{fill:#003c81;}.cls-3{font-size:14.14px;fill:#fff;font-family:GillSans-SemiBold, Gill Sans;font-weight:600;}.cls-4{letter-spacing:-0.01em;}.cls-5{letter-spacing:-0.02em;}.cls-6{letter-spacing:0em;}</style></defs><polygon class="cls-1" points="316.33 21.89 236.75 21.89 241.06 6.84 320.65 6.84 316.33 21.89"/><polygon class="cls-2" points="271.68 21.89 236.75 21.89 241.06 6.84 275.99 6.84 271.68 21.89"/><text class="cls-3" transform="matrix(1, 0, -0.28, 0.96, 242.29, 19.56)">P<tspan class="cls-4" x="8.26" y="0">T</tspan><tspan x="17.54" y="0">S NE</tspan><tspan class="cls-5" x="48.41" y="0">W</tspan><tspan class="cls-6" x="63.51" y="0">S</tspan></text><path class="cls-2" d="M25.69,10.56S23,10.31,23,5.56s3.15-5,3.15-5H69.1L73,20.84c.32,1.36.79,2.05,1.51,2.05H77s2.05,0,1.89,5.18c0,4.44-3.14,4.81-3.14,4.81H67.18c-2.92-.18-4.77-2-5.5-5.56L58.54,10.56Zm6.06,3.81-9.24,13a11,11,0,0,1-8.74,5.56H8.52s-3.14,0-3.14-5,3.52-5,3.52-5h2.26a6.08,6.08,0,0,0,4.56-2.05l5-6.47ZM0,70.64l2.45-8.8L38,22.54s2-2.07,7.7-1.51c6.73.66,5.6,5.32,5.6,5.32L21.06,59.61H50.24c2.11,0,2.17,0,1.63-2.49L49.2,43.64s0-4,6.95-4.47a5.63,5.63,0,0,1,5.94,4.47l2.74,17q0,10-8.15,10H.09Z"/><path class="cls-2" d="M144.05,50.14a11.1,11.1,0,0,0,5.25-6.5L161.88.16H126.32L118,29a10.09,10.09,0,0,1,6.54,12.69c-.07.24-.16.47-.25.71a20.11,20.11,0,0,1-9.59,11.57l-3,6a3.8,3.8,0,0,1-3.33,2.55s-3-.79-3.87,5.09C103.84,72.59,108,72,108,72h3.15a9.42,9.42,0,0,0,9.08-5.66l8-15.18h2.95l-3.87,13.3q-2,7.17,5,7.45h10.73s2.54.28,4-4.94-1.19-4.43-1.19-4.43h-3.59c-1.19,0-1.6-.6-1.26-1.79ZM136.47,8.21h11l-1.92,5.72h-11Zm1.36,31.43a2.24,2.24,0,0,1-2.3,1.8h-9.24l1.76-5.73h11Zm-7.61-11.72L132,22.1h11l-1.79,5.82Z"/><path class="cls-2" d="M96.39,42.28a20.5,20.5,0,0,1,13.2-13.17,87.47,87.47,0,0,0,9.88-12.57,11.41,11.41,0,0,0,.88-5.22c-.47-1.35-1.76-2-3.87-2H111.1l1.51-5.25A3.14,3.14,0,0,0,112,.91,7.71,7.71,0,0,0,108.43,0,9.9,9.9,0,0,0,104,1.16a6.28,6.28,0,0,0-2.42,2.9L100,9.31H95.26a4.93,4.93,0,0,0-3.49,1.16,9.28,9.28,0,0,0-2,3.46,4.83,4.83,0,0,0,0,3.14,3.4,3.4,0,0,0,2.89,1.42h14.87A92.85,92.85,0,0,1,85.92,37.63a5.25,5.25,0,0,0-4.11,6.18,5.16,5.16,0,0,0,.21.77,4,4,0,0,0,2.11,2.61c.65.59,1.81.59,3.49,0,1.6-1.16,3.14-2.11,4.31-2.89L85,68.16a2.07,2.07,0,0,0,.85,2.61,4.7,4.7,0,0,0,3.14.88A9.2,9.2,0,0,0,93,70.77a4.12,4.12,0,0,0,2.86-2.61l4-13.9A10.56,10.56,0,0,1,96.39,42.28Z"/><path class="cls-1" d="M107.49,52.28A14.42,14.42,0,0,0,120.35,42a7.32,7.32,0,0,0-4.13-9.5A7.42,7.42,0,0,0,113,32a14.57,14.57,0,0,0-12.86,10.28,7.32,7.32,0,0,0,7.33,10Z"/><path class="cls-2" d="M159,68.79c2-.92,4.9-6.25,5.2-6.93s1.54-3.09.52-4.43a2.66,2.66,0,0,0-3.59-.79c-1.9,1-1.21,4.57-5.11,7.88a2.52,2.52,0,0,0-.61,3.42A2.72,2.72,0,0,0,159,68.79Z"/><path class="cls-2" d="M180.83,41.69h2.61c1.68,0,2.28.82,1.81,2.47A3,3,0,0,1,182,46.58H175.7l-1.1,3.82h5.84c1.71,0,2.33.82,1.86,2.47A3.11,3.11,0,0,1,179,55.34h-5.84l-4,13.89a3.54,3.54,0,0,1-3.73,2.8q-3,0-2.17-2.8l2.06-7.17,1.93-6.72h-6.4c-1.71,0-2.33-.83-1.86-2.47a3.11,3.11,0,0,1,3.28-2.47h6.39l1.1-3.82h-6.6c-1.67,0-2.28-.81-1.82-2.42a3.07,3.07,0,0,1,3.22-2.47h2.17m-9.57,26.54M170.1,35.54h-3.22c-1.68,0-2.29-.8-1.82-2.41a3,3,0,0,1,3.19-2.38h6.1l.48-1.69a3.58,3.58,0,0,1,3.78-2.81c1.94,0,2.65.94,2.11,2.81l-.48,1.69h6c1.64,0,2.24.8,1.78,2.38a3,3,0,0,1-3.16,2.41h-2.77M186,46.92l4-13.79a3.46,3.46,0,0,1,1.65-2.25,3.1,3.1,0,0,1,2.62-.17,85.29,85.29,0,0,0,11.95-3.44,2.9,2.9,0,0,1,3.66.77q2.22,2.63-1.86,4a114.25,114.25,0,0,1-12.93,3.15l-1.83,6.48h13.09q2.82,0,2,2.71a3.4,3.4,0,0,1-3.59,2.71h-2L196.44,69a3.56,3.56,0,0,1-3.77,2.81q-2.92,0-2.11-2.81l6.31-21.92h-5.18"/><polygon class="cls-2" points="172.38 41.79 172.79 35.49 167.24 35.49 166.84 41.79 172.38 41.79"/><polygon class="cls-2" points="181.69 41.79 184.81 35.49 179.33 35.49 176.22 41.79 181.69 41.79"/><path class="cls-2" d="M195.31,34.41l-5.94,20.16c-.51,1.81-6.2,1.81-5.68,0l5.93-20.16"/><path class="cls-2" d="M181.16,67.4A24.65,24.65,0,0,0,178.41,59c-.79-1.18-1.84-2.53-3.51-2-2,.67-1.64,2.54-.84,4.13a27.5,27.5,0,0,1,2.31,7.62,2.45,2.45,0,0,0,2.72,2.15C181.75,70.59,181.16,67.4,181.16,67.4Z"/><path class="cls-2" d="M189.33,54.68c-2.33,4.94-5,11.65-8.28,14.85q-2.75,2.4-4.05.15l-.07-.1a2.24,2.24,0,0,1-.51-2.12c.15-.7.53-1.08,1.34-1.82,2.57-2.57,4.48-8,6-11.14"/><path class="cls-2" d="M218,27.75h16.31a2.26,2.26,0,0,1,2.41,3.2l-3,10.64a4.47,4.47,0,0,1-1.58,2.35,4.27,4.27,0,0,1-2.68.9H219.05l-7,24.48a3.56,3.56,0,0,1-3.77,2.81q-3,0-2.17-2.81L217.1,31C217.37,30,218,27.75,218,27.75Zm5.5,19.12H244.2c1.41,0,1.92.68,1.53,2a2.56,2.56,0,0,1-2.7,2h-1L237.1,68.11a3.29,3.29,0,0,1-3.47,2.62q-2.72,0-2-2.62l.09-.29q-9.36.68-14.92,1.12c-.75,0-1.23-.12-1.44-.44a2.29,2.29,0,0,1-.08-1.64,2.8,2.8,0,0,1,2.84-2.38l1.27,0,3.88-13.51h-1c-1.41,0-1.92-.67-1.53-2A2.57,2.57,0,0,1,223.51,46.87ZM229,38.11h-8l-.73,2.56H227a1.52,1.52,0,0,0,1.61-1.21Zm-6.92-3.77h8l.4-1.41c.2-.68-.08-1-.81-1H224a1.45,1.45,0,0,0-1.54,1.16Zm11.48,27.19h-8l-.75,2.61,8.14-.48Zm-7.08-3.24h8l.61-2.13h-8ZM228,52.92h8l.57-2h-8Zm13.08-25.17h20s-.7,2.23-1,3.2l-9.85,34.36a12.71,12.71,0,0,1-1.53,3.55,5.51,5.51,0,0,1-2.37,2c-1,.45-2.32-4.72-2.14-5.36l5.89-20.53H239.47a2.5,2.5,0,0,1-2.16-.89,2.62,2.62,0,0,1-.24-2.35L240.15,31C240.43,30,241.09,27.75,241.09,27.75Zm11,10.36h-8.26l-.42,1.45c-.23.81.08,1.21.91,1.21h7Zm-7.18-3.77h8.26l.4-1.41c.19-.68-.06-1-.77-1h-5.94a1.48,1.48,0,0,0-1.59,1.16Z"/><path class="cls-2" d="M244.28,65.39a1.9,1.9,0,0,1-1.67,1.27s-1.48-.39-1.92,2.54c-.36,2.49,1.72,2.18,1.72,2.18H244a4.71,4.71,0,0,0,4.53-2.83"/><path class="cls-2" d="M239.82,66.66s-1.49-.39-1.93,2.54c-.36,2.49,1.73,2.18,1.73,2.18h3.81"/><rect class="cls-2" x="239.65" y="66.66" width="3.26" height="2.64"/><path class="cls-2" d="M280.92,48.79,285.83,32c.28-.94.92-3.13.92-3.13h27.44s-.65,2.19-.92,3.13l-10.06,34.4a9.6,9.6,0,0,1-1.44,3.11c-.57.74-1.77.4-2.73.81-1.25.51-2.62-2.92-2.62-2.92a1.27,1.27,0,0,0,1.25-1L306.84,35c.23-.79-.07-1.19-.91-1.19h-14a1.52,1.52,0,0,0-1.6,1.19L280.19,69.71a3.23,3.23,0,0,1-3.41,2.52q-2.71,0-2-2.52l1.73-5.93M300.93,42h.15c1.54,0,2.1.73,1.67,2.19a2.79,2.79,0,0,1-2.95,2.18h-2.06l-1.12,3.8h2.22c1.55,0,2.1.72,1.68,2.18a2.8,2.8,0,0,1-3,2.18h-5.08l-1.26,4.32A4.15,4.15,0,0,0,291,60.1c0,.21.21.31.54.31L290.18,65c-2.35,0-3.77-.44-4.27-1.33s-.39-2.52.3-4.89l1.24-4.22h-.11a1,1,0,0,1-1-.47,1.5,1.5,0,0,1-.06-1.19,4.2,4.2,0,0,1,1.17-1.95,2.8,2.8,0,0,1,1.94-.75h2.11l1.11-3.8h-2c-1.55,0-2.07-.84-1.58-2.51A2.22,2.22,0,0,1,291.36,42h.1"/><path class="cls-2" d="M281,65.5a24,24,0,0,0-2.74-8.28c-.79-1.15-1.84-2.47-3.51-1.91-2,.66-1.65,2.48-.84,4a26.61,26.61,0,0,1,2.31,7.48,2.45,2.45,0,0,0,2.72,2.11C281.56,68.63,281,65.5,281,65.5Z"/><path class="cls-2" d="M259.24,66.59c2-.9,4.9-6.12,5.19-6.79s1.54-3,.52-4.34a2.69,2.69,0,0,0-3.59-.77c-1.9.93-1.2,4.47-5.11,7.72a2.45,2.45,0,0,0-.61,3.36A2.76,2.76,0,0,0,259.24,66.59Z"/><path class="cls-2" d="M273.46,48.09h-4.22l13.19-12.31-5-1.73-2.41,2.24h-2.8l4.27-3.85-4.81-1.58L266.09,36a2.3,2.3,0,0,0-.92,1.16L264,41.31h5.76l-6.11,5.74a6.55,6.55,0,0,0-2.32,2.66l-1,3.41h9.87v-.5h2.11v.5h1.55a5.4,5.4,0,0,0,3.31-1.22,4.48,4.48,0,0,0,1.62-2.11"/><path class="cls-2" d="M273.43,52l-5.17,17.69A3.11,3.11,0,0,1,265,72.13c-1.78,0-2.43-.81-2-2.42l5.06-17.32"/><path class="cls-2" d="M297.93,65.5a2,2,0,0,1-1.69,1.27s-1.66.12-2,2.53S296,71.48,296,71.48h1.6a4.79,4.79,0,0,0,4.61-2.82"/><path class="cls-2" d="M293.38,66.77s-1.51-.4-2,2.53c-.37,2.5,1.76,2.18,1.76,2.18h3.89"/><rect class="cls-2" x="293.22" y="66.77" width="3.32" height="2.64"/><path class="cls-2" d="M274.19,37.13l3.87-3.71s.8-.8,3.06-.58c2.67.25,2.22,2.06,2.22,2.06l-5.21,4.85"/><path class="cls-2" d="M270.33,32.13l3.7-3.54s.76-.77,2.92-.56c2.55.25,2.13,2,2.13,2l-5,4.63"/><path class="cls-2" d="M270.27,48.08h4.14c1,0,1,0,.76-1.13L274.69,45s-.71-1.86,2-2a2.61,2.61,0,0,1,2.76,2l.51,3.53q0,4.55-3.78,4.55H269"/><polygon class="cls-2" points="296.18 42.01 296.51 36.86 291.89 36.86 291.55 42.01 296.18 42.01"/><polygon class="cls-2" points="301.15 42.01 303.75 36.86 299.18 36.86 296.59 42.01 301.15 42.01"/><path class="cls-2" d="M290,65h5.92s1.27.13,2-2.4-.59-2.15-.59-2.15h-5.78"/></svg>